<?xml version="1.0" standalone="no"?>
<!DOCTYPE svg PUBLIC "-//W3C//DTD SVG 1.1//EN" "http://www.w3.org/Graphics/SVG/1.1/DTD/svg11.dtd">
<svg width="340.0000000000002mm" height="134.0000000000001mm"
 viewBox="0 0 340.0000000000002 134.0000000000001"
 xmlns="http://www.w3.org/2000/svg" version="1.1"
 xmlns:xlink="http://www.w3.org/1999/xlink">
<desc>Output from Flights of Ideas SVG Sketchup Plugin</desc>

  <path id="face0-cut"
 style="fill:none;stroke:#0000FF;stroke-width:1;stroke-miterlimit:4;stroke-dasharray:none;stroke-linejoin:round;stroke-linecap:round"
        d="M 40.0,10.0 L 20.000000000000227,10.0 L 20.000000000000227,14.800000000000011 L 14.799999999999955,14.800000000000011 L 14.799999999999955,37.0 L 10.0,37.0 L 10.0,57.0 L 14.799999999999955,57.0 L 14.799999999999955,76.99999999999989 L 10.0,76.99999999999989 L 10.0,97.00000000000011 L 14.799999999999955,97.00000000000011 L 14.799999999999955,119.20000000000005 L 20.000000000000227,119.20000000000005 L 20.000000000000227,124.00000000000011 L 40.0,124.00000000000011 L 40.0,119.20000000000005 L 60.0,119.20000000000005 L 60.0,124.00000000000011 L 80.0,124.00000000000011 L 80.0,119.20000000000005 L 100.00000000000023,119.20000000000005 L 100.0,124.00000000000011 L 120.00000000000023,124.00000000000011 L 120.00000000000023,119.20000000000005 L 140.0,119.20000000000005 L 140.0,124.00000000000011 L 160.0,124.00000000000011 L 160.0,119.20000000000005 L 180.0,119.20000000000005 L 180.00000000000023,124.00000000000011 L 200.00000000000023,124.00000000000011 L 200.00000000000023,119.20000000000005 L 220.00000000000023,119.20000000000005 L 220.00000000000023,124.00000000000011 L 240.0,124.00000000000011 L 240.0,119.20000000000005 L 260.0000000000002,119.20000000000005 L 260.0000000000002,124.00000000000011 L 280.0000000000002,124.00000000000011 L 280.0000000000002,119.20000000000016 L 300.0000000000002,119.20000000000005 L 300.0000000000002,124.00000000000011 L 320.0000000000002,124.00000000000011 L 320.0000000000002,119.20000000000005 L 325.2000000000003,119.20000000000005 L 325.2000000000003,97.0 L 330.0000000000002,97.00000000000011 L 330.0000000000002,77.0 L 325.2000000000003,76.99999999999977 L 325.2000000000003,57.000000000000114 L 330.0000000000002,57.000000000000114 L 330.0000000000002,36.99999999999926 L 325.2000000000003,37.0 L 325.20000000000005,14.800000000000637 L 320.0000000000002,14.799999999998192 L 320.0000000000002,10.0 L 300.0000000000002,10.0 L 300.0000000000002,14.799999999998192 L 280.0000000000002,14.800000000000182 L 280.0000000000002,10.0 L 260.0000000000002,10.0 L 260.0000000000002,14.800000000000523 L 240.0,14.800000000000011 L 240.0,10.0 L 220.00000000000023,10.0 L 220.00000000000023,14.800000000000011 L 200.00000000000023,14.800000000000068 L 200.00000000000023,10.0 L 180.0,10.0 L 180.00000000000023,14.799999999999557 L 160.0,14.800000000000182 L 160.0,10.0 L 140.0,10.0 L 140.0,14.799999999999727 L 120.00000000000023,14.800000000000011 L 120.00000000000023,10.0 L 100.00000000000023,10.0 L 100.00000000000023,14.800000000000011 L 80.0,14.800000000000011 L 80.0,10.0 L 60.0,10.0 L 60.0,14.800000000000011 L 40.0,14.800000000000011 L 40.0,10.0 "
  />
  <path id="face0-interior"
 style="fill:none;stroke:#FF0000;stroke-width:1;stroke-miterlimit:4;stroke-dasharray:none;stroke-linejoin:round;stroke-linecap:round"
        d="M 40.0,10.0 M 20.000000000000227,10.0 M 20.000000000000227,14.800000000000011 M 14.799999999999955,14.800000000000011 M 14.799999999999955,37.0 M 10.0,37.0 M 10.0,57.0 M 14.799999999999955,57.0 M 14.799999999999955,76.99999999999989 M 10.0,76.99999999999989 M 10.0,97.00000000000011 M 14.799999999999955,97.00000000000011 M 14.799999999999955,119.20000000000005 M 20.000000000000227,119.20000000000005 M 20.000000000000227,124.00000000000011 M 40.0,124.00000000000011 M 40.0,119.20000000000005 M 60.0,119.20000000000005 M 60.0,124.00000000000011 M 80.0,124.00000000000011 M 80.0,119.20000000000005 M 100.00000000000023,119.20000000000005 M 100.0,124.00000000000011 M 120.00000000000023,124.00000000000011 M 120.00000000000023,119.20000000000005 M 140.0,119.20000000000005 M 140.0,124.00000000000011 M 160.0,124.00000000000011 M 160.0,119.20000000000005 M 180.0,119.20000000000005 M 180.00000000000023,124.00000000000011 M 200.00000000000023,124.00000000000011 M 200.00000000000023,119.20000000000005 M 220.00000000000023,119.20000000000005 M 220.00000000000023,124.00000000000011 M 240.0,124.00000000000011 M 240.0,119.20000000000005 M 260.0000000000002,119.20000000000005 M 260.0000000000002,124.00000000000011 M 280.0000000000002,124.00000000000011 M 280.0000000000002,119.20000000000016 M 300.0000000000002,119.20000000000005 M 300.0000000000002,124.00000000000011 M 320.0000000000002,124.00000000000011 M 320.0000000000002,119.20000000000005 M 325.2000000000003,119.20000000000005 M 325.2000000000003,97.0 M 330.0000000000002,97.00000000000011 M 330.0000000000002,77.0 M 325.2000000000003,76.99999999999977 M 325.2000000000003,57.000000000000114 M 330.0000000000002,57.000000000000114 M 330.0000000000002,36.99999999999926 M 325.2000000000003,37.0 M 325.20000000000005,14.800000000000637 M 320.0000000000002,14.799999999998192 M 320.0000000000002,10.0 M 300.0000000000002,10.0 M 300.0000000000002,14.799999999998192 M 280.0000000000002,14.800000000000182 M 280.0000000000002,10.0 M 260.0000000000002,10.0 M 260.0000000000002,14.800000000000523 M 240.0,14.800000000000011 M 240.0,10.0 M 220.00000000000023,10.0 M 220.00000000000023,14.800000000000011 M 200.00000000000023,14.800000000000068 M 200.00000000000023,10.0 M 180.0,10.0 M 180.00000000000023,14.799999999999557 M 160.0,14.800000000000182 M 160.0,10.0 M 140.0,10.0 M 140.0,14.799999999999727 M 120.00000000000023,14.800000000000011 M 120.00000000000023,10.0 M 100.00000000000023,10.0 M 100.00000000000023,14.800000000000011 M 80.0,14.800000000000011 M 80.0,10.0 M 60.0,10.0 M 60.0,14.800000000000011 M 40.0,14.800000000000011 "
  />
  <path id="face0-interior"
 style="fill:none;stroke:#00FF00;stroke-width:1;stroke-miterlimit:4;stroke-dasharray:none;stroke-linejoin:round;stroke-linecap:round"
        d="M 40.0,10.0 M 20.000000000000227,10.0 M 20.000000000000227,14.800000000000011 M 14.799999999999955,14.800000000000011 M 14.799999999999955,37.0 M 10.0,37.0 M 10.0,57.0 M 14.799999999999955,57.0 M 14.799999999999955,76.99999999999989 M 10.0,76.99999999999989 M 10.0,97.00000000000011 M 14.799999999999955,97.00000000000011 M 14.799999999999955,119.20000000000005 M 20.000000000000227,119.20000000000005 M 20.000000000000227,124.00000000000011 M 40.0,124.00000000000011 M 40.0,119.20000000000005 M 60.0,119.20000000000005 M 60.0,124.00000000000011 M 80.0,124.00000000000011 M 80.0,119.20000000000005 M 100.00000000000023,119.20000000000005 M 100.0,124.00000000000011 M 120.00000000000023,124.00000000000011 M 120.00000000000023,119.20000000000005 M 140.0,119.20000000000005 M 140.0,124.00000000000011 M 160.0,124.00000000000011 M 160.0,119.20000000000005 M 180.0,119.20000000000005 M 180.00000000000023,124.00000000000011 M 200.00000000000023,124.00000000000011 M 200.00000000000023,119.20000000000005 M 220.00000000000023,119.20000000000005 M 220.00000000000023,124.00000000000011 M 240.0,124.00000000000011 M 240.0,119.20000000000005 M 260.0000000000002,119.20000000000005 M 260.0000000000002,124.00000000000011 M 280.0000000000002,124.00000000000011 M 280.0000000000002,119.20000000000016 M 300.0000000000002,119.20000000000005 M 300.0000000000002,124.00000000000011 M 320.0000000000002,124.00000000000011 M 320.0000000000002,119.20000000000005 M 325.2000000000003,119.20000000000005 M 325.2000000000003,97.0 M 330.0000000000002,97.00000000000011 M 330.0000000000002,77.0 M 325.2000000000003,76.99999999999977 M 325.2000000000003,57.000000000000114 M 330.0000000000002,57.000000000000114 M 330.0000000000002,36.99999999999926 M 325.2000000000003,37.0 M 325.20000000000005,14.800000000000637 M 320.0000000000002,14.799999999998192 M 320.0000000000002,10.0 M 300.0000000000002,10.0 M 300.0000000000002,14.799999999998192 M 280.0000000000002,14.800000000000182 M 280.0000000000002,10.0 M 260.0000000000002,10.0 M 260.0000000000002,14.800000000000523 M 240.0,14.800000000000011 M 240.0,10.0 M 220.00000000000023,10.0 M 220.00000000000023,14.800000000000011 M 200.00000000000023,14.800000000000068 M 200.00000000000023,10.0 M 180.0,10.0 M 180.00000000000023,14.799999999999557 M 160.0,14.800000000000182 M 160.0,10.0 M 140.0,10.0 M 140.0,14.799999999999727 M 120.00000000000023,14.800000000000011 M 120.00000000000023,10.0 M 100.00000000000023,10.0 M 100.00000000000023,14.800000000000011 M 80.0,14.800000000000011 M 80.0,10.0 M 60.0,10.0 M 60.0,14.800000000000011 M 40.0,14.800000000000011 "
  />
</svg>
