<?xml version="1.0" standalone="no"?>
<!DOCTYPE svg PUBLIC "-//W3C//DTD SVG 1.1//EN" "http://www.w3.org/Graphics/SVG/1.1/DTD/svg11.dtd">
<svg width="462.0mm" height="134.0000000000001mm"
 viewBox="0 0 462.0 134.0000000000001"
 xmlns="http://www.w3.org/2000/svg" version="1.1"
 xmlns:xlink="http://www.w3.org/1999/xlink">
<desc>Output from Flights of Ideas SVG Sketchup Plugin</desc>

  <path id="face0-cut"
 style="fill:none;stroke:#0000FF;stroke-width:1;stroke-miterlimit:4;stroke-dasharray:none;stroke-linejoin:round;stroke-linecap:round"
        d="M 41.0,10.0 L 21.000000000000227,10.0 L 21.000000000000227,14.799999999999983 L 10.0,14.799999999999997 L 10.0,119.20000000000006 L 21.000000000000227,119.20000000000006 L 21.000000000000227,124.00000000000007 L 41.0,124.00000000000004 L 41.0,119.20000000000006 L 61.0,119.20000000000006 L 61.0,124.00000000000007 L 81.00000000000023,124.00000000000004 L 81.0,119.20000000000006 L 101.0,119.20000000000006 L 101.0,124.00000000000004 L 121.00000000000023,124.00000000000004 L 121.00000000000023,119.20000000000006 L 141.0,119.20000000000006 L 141.0,124.00000000000004 L 161.0,124.00000000000004 L 161.0,119.20000000000006 L 181.0,119.20000000000006 L 181.0,124.00000000000004 L 201.00000000000023,124.00000000000004 L 201.00000000000023,119.20000000000003 L 221.00000000000023,119.20000000000009 L 221.00000000000023,124.00000000000007 L 241.0,124.0000000000001 L 241.0,119.20000000000003 L 261.0,119.2 L 261.0,124.00000000000004 L 281.0,124.00000000000007 L 281.0,119.20000000000012 L 301.0000000000002,119.20000000000014 L 301.0000000000002,124.00000000000001 L 321.0000000000002,124.0000000000001 L 321.0000000000002,119.20000000000017 L 341.0,119.20000000000014 L 341.0,124.00000000000007 L 361.0000000000002,123.99999999999999 L 361.0000000000002,119.20000000000009 L 381.0000000000002,119.20000000000009 L 381.0000000000002,124.00000000000001 L 401.0000000000002,123.99999999999993 L 401.0000000000002,119.20000000000014 L 421.0000000000002,119.20000000000006 L 421.0000000000002,124.0000000000001 L 441.0,123.99999999999996 L 441.0,119.19999999999986 L 452.0,119.20000000000014 L 452.0,96.9999999999997 L 447.20000000000005,96.99999999999979 L 447.20000000000005,76.99999999999984 L 452.0,76.9999999999995 L 452.0,57.0000000000003 L 447.20000000000005,56.999999999999474 L 447.20000000000005,37.000000000000014 L 452.0,37.00000000000031 L 452.0,14.800000000002186 L 441.0,14.799999999997453 L 441.0,10.0 L 421.0000000000002,10.0 L 421.0000000000002,14.80000000000085 L 401.0000000000002,14.799999999999287 L 401.0000000000002,10.0 L 381.0,10.0 L 381.0,14.800000000001702 L 361.0,14.80000000000365 L 361.0000000000002,10.0 L 341.0,10.0 L 341.0,14.799999999997809 L 321.0000000000002,14.800000000000011 L 321.0000000000002,10.0 L 301.0000000000002,10.0 L 301.0000000000002,14.799999999999756 L 281.0,14.800000000001504 L 281.0,10.0 L 261.0,10.0 L 261.0,14.80000000000048 L 241.0,14.799999999999969 L 241.0,10.0 L 221.00000000000023,10.0 L 221.00000000000023,14.800000000000011 L 201.00000000000023,14.800000000000125 L 201.00000000000023,10.0 L 181.0,10.0 L 181.00000000000023,14.799999999999514 L 161.0,14.80000000000014 L 161.0,10.0 L 141.0,10.0 L 141.0,14.799999999999699 L 121.00000000000023,14.799999999999969 L 121.00000000000023,10.0 L 101.00000000000023,10.0 L 101.00000000000023,14.800000000000026 L 81.0,14.800000000000011 L 81.0,10.0 L 61.0,10.0 L 61.0,14.799999999999983 L 41.0,14.799999999999983 L 41.0,10.0 "
  />
  <path id="face0-interior"
 style="fill:none;stroke:#FF0000;stroke-width:1;stroke-miterlimit:4;stroke-dasharray:none;stroke-linejoin:round;stroke-linecap:round"
        d="M 41.0,10.0 M 21.000000000000227,10.0 M 21.000000000000227,14.799999999999983 M 10.0,14.799999999999997 M 10.0,119.20000000000006 M 21.000000000000227,119.20000000000006 M 21.000000000000227,124.00000000000007 M 41.0,124.00000000000004 M 41.0,119.20000000000006 M 61.0,119.20000000000006 M 61.0,124.00000000000007 M 81.00000000000023,124.00000000000004 M 81.0,119.20000000000006 M 101.0,119.20000000000006 M 101.0,124.00000000000004 M 121.00000000000023,124.00000000000004 M 121.00000000000023,119.20000000000006 M 141.0,119.20000000000006 M 141.0,124.00000000000004 M 161.0,124.00000000000004 M 161.0,119.20000000000006 M 181.0,119.20000000000006 M 181.0,124.00000000000004 M 201.00000000000023,124.00000000000004 M 201.00000000000023,119.20000000000003 M 221.00000000000023,119.20000000000009 M 221.00000000000023,124.00000000000007 M 241.0,124.0000000000001 M 241.0,119.20000000000003 M 261.0,119.2 M 261.0,124.00000000000004 M 281.0,124.00000000000007 M 281.0,119.20000000000012 M 301.0000000000002,119.20000000000014 M 301.0000000000002,124.00000000000001 M 321.0000000000002,124.0000000000001 M 321.0000000000002,119.20000000000017 M 341.0,119.20000000000014 M 341.0,124.00000000000007 M 361.0000000000002,123.99999999999999 M 361.0000000000002,119.20000000000009 M 381.0000000000002,119.20000000000009 M 381.0000000000002,124.00000000000001 M 401.0000000000002,123.99999999999993 M 401.0000000000002,119.20000000000014 M 421.0000000000002,119.20000000000006 M 421.0000000000002,124.0000000000001 M 441.0,123.99999999999996 M 441.0,119.19999999999986 M 452.0,119.20000000000014 M 452.0,96.9999999999997 M 447.20000000000005,96.99999999999979 M 447.20000000000005,76.99999999999984 M 452.0,76.9999999999995 M 452.0,57.0000000000003 M 447.20000000000005,56.999999999999474 M 447.20000000000005,37.000000000000014 M 452.0,37.00000000000031 M 452.0,14.800000000002186 M 441.0,14.799999999997453 M 441.0,10.0 M 421.0000000000002,10.0 M 421.0000000000002,14.80000000000085 M 401.0000000000002,14.799999999999287 M 401.0000000000002,10.0 M 381.0,10.0 M 381.0,14.800000000001702 M 361.0,14.80000000000365 M 361.0000000000002,10.0 M 341.0,10.0 M 341.0,14.799999999997809 M 321.0000000000002,14.800000000000011 M 321.0000000000002,10.0 M 301.0000000000002,10.0 M 301.0000000000002,14.799999999999756 M 281.0,14.800000000001504 M 281.0,10.0 M 261.0,10.0 M 261.0,14.80000000000048 M 241.0,14.799999999999969 M 241.0,10.0 M 221.00000000000023,10.0 M 221.00000000000023,14.800000000000011 M 201.00000000000023,14.800000000000125 M 201.00000000000023,10.0 M 181.0,10.0 M 181.00000000000023,14.799999999999514 M 161.0,14.80000000000014 M 161.0,10.0 M 141.0,10.0 M 141.0,14.799999999999699 M 121.00000000000023,14.799999999999969 M 121.00000000000023,10.0 M 101.00000000000023,10.0 M 101.00000000000023,14.800000000000026 M 81.0,14.800000000000011 M 81.0,10.0 M 61.0,10.0 M 61.0,14.799999999999983 M 41.0,14.799999999999983 "
  />
  <path id="face0-interior"
 style="fill:none;stroke:#00FF00;stroke-width:1;stroke-miterlimit:4;stroke-dasharray:none;stroke-linejoin:round;stroke-linecap:round"
        d="M 41.0,10.0 M 21.000000000000227,10.0 M 21.000000000000227,14.799999999999983 M 10.0,14.799999999999997 M 10.0,119.20000000000006 M 21.000000000000227,119.20000000000006 M 21.000000000000227,124.00000000000007 M 41.0,124.00000000000004 M 41.0,119.20000000000006 M 61.0,119.20000000000006 M 61.0,124.00000000000007 M 81.00000000000023,124.00000000000004 M 81.0,119.20000000000006 M 101.0,119.20000000000006 M 101.0,124.00000000000004 M 121.00000000000023,124.00000000000004 M 121.00000000000023,119.20000000000006 M 141.0,119.20000000000006 M 141.0,124.00000000000004 M 161.0,124.00000000000004 M 161.0,119.20000000000006 M 181.0,119.20000000000006 M 181.0,124.00000000000004 M 201.00000000000023,124.00000000000004 M 201.00000000000023,119.20000000000003 M 221.00000000000023,119.20000000000009 M 221.00000000000023,124.00000000000007 M 241.0,124.0000000000001 M 241.0,119.20000000000003 M 261.0,119.2 M 261.0,124.00000000000004 M 281.0,124.00000000000007 M 281.0,119.20000000000012 M 301.0000000000002,119.20000000000014 M 301.0000000000002,124.00000000000001 M 321.0000000000002,124.0000000000001 M 321.0000000000002,119.20000000000017 M 341.0,119.20000000000014 M 341.0,124.00000000000007 M 361.0000000000002,123.99999999999999 M 361.0000000000002,119.20000000000009 M 381.0000000000002,119.20000000000009 M 381.0000000000002,124.00000000000001 M 401.0000000000002,123.99999999999993 M 401.0000000000002,119.20000000000014 M 421.0000000000002,119.20000000000006 M 421.0000000000002,124.0000000000001 M 441.0,123.99999999999996 M 441.0,119.19999999999986 M 452.0,119.20000000000014 M 452.0,96.9999999999997 M 447.20000000000005,96.99999999999979 M 447.20000000000005,76.99999999999984 M 452.0,76.9999999999995 M 452.0,57.0000000000003 M 447.20000000000005,56.999999999999474 M 447.20000000000005,37.000000000000014 M 452.0,37.00000000000031 M 452.0,14.800000000002186 M 441.0,14.799999999997453 M 441.0,10.0 M 421.0000000000002,10.0 M 421.0000000000002,14.80000000000085 M 401.0000000000002,14.799999999999287 M 401.0000000000002,10.0 M 381.0,10.0 M 381.0,14.800000000001702 M 361.0,14.80000000000365 M 361.0000000000002,10.0 M 341.0,10.0 M 341.0,14.799999999997809 M 321.0000000000002,14.800000000000011 M 321.0000000000002,10.0 M 301.0000000000002,10.0 M 301.0000000000002,14.799999999999756 M 281.0,14.800000000001504 M 281.0,10.0 M 261.0,10.0 M 261.0,14.80000000000048 M 241.0,14.799999999999969 M 241.0,10.0 M 221.00000000000023,10.0 M 221.00000000000023,14.800000000000011 M 201.00000000000023,14.800000000000125 M 201.00000000000023,10.0 M 181.0,10.0 M 181.00000000000023,14.799999999999514 M 161.0,14.80000000000014 M 161.0,10.0 M 141.0,10.0 M 141.0,14.799999999999699 M 121.00000000000023,14.799999999999969 M 121.00000000000023,10.0 M 101.00000000000023,10.0 M 101.00000000000023,14.800000000000026 M 81.0,14.800000000000011 M 81.0,10.0 M 61.0,10.0 M 61.0,14.799999999999983 M 41.0,14.799999999999983 "
  />
</svg>
