<?xml version="1.0" standalone="no"?>
<!DOCTYPE svg PUBLIC "-//W3C//DTD SVG 1.1//EN" "http://www.w3.org/Graphics/SVG/1.1/DTD/svg11.dtd">
<svg width="1239.2mm" height="629.5999999999999mm"
 viewBox="0 0 1239.2 629.5999999999999"
 xmlns="http://www.w3.org/2000/svg" version="1.1"
 xmlns:xlink="http://www.w3.org/1999/xlink">
<desc>Output from Flights of Ideas SVG Sketchup Plugin</desc>

  <path id="face0-cut"
 style="fill:none;stroke:#0000FF;stroke-width:1;stroke-miterlimit:4;stroke-dasharray:none;stroke-linejoin:round;stroke-linecap:round"
        d="M 10.0,10.0 L 10.0,619.5999999999999 L 1229.2,619.5999999999998 L 1229.2,10.0 L 10.0,10.0 M 616.6220142171421,583.0200114221708 L 616.6220142171421,603.020011422171 L 611.8220142171422,603.0200114221707 L 611.8220142171422,614.020011422171 L 507.4220142171423,614.0200114221708 L 507.4220142171421,603.0200114221709 L 502.6220142171421,603.0200114221709 L 502.6220142171421,583.020011422171 L 507.4220142171421,583.0200114221711 L 507.4220142171421,563.020011422171 L 502.6220142171421,563.0200114221709 L 502.62201421714235,543.0200114221709 L 507.4220142171421,543.0200114221709 L 507.4220142171423,523.0200114221709 L 502.6220142171421,523.020011422171 L 502.6220142171421,503.0200114221708 L 507.4220142171421,503.02001142217097 L 507.4220142171421,483.02001142217085 L 502.6220142171421,483.020011422171 L 502.6220142171419,463.0200114221711 L 507.4220142171421,463.0200114221709 L 507.4220142171421,443.0200114221709 L 502.6220142171419,443.02001142217085 L 502.6220142171419,423.02001142217085 L 507.4220142171421,423.02001142217097 L 507.4220142171421,403.02001142217097 L 502.6220142171419,403.02001142217097 L 502.6220142171419,383.02001142217097 L 507.4220142171421,383.02001142217114 L 507.4220142171421,363.0200114221708 L 502.6220142171419,363.0200114221709 L 502.6220142171419,343.020011422171 L 507.4220142171421,343.02001142217085 L 507.4220142171421,323.0200114221709 L 502.6220142171419,323.0200114221709 L 502.6220142171419,303.02001142217097 L 507.4220142171421,303.02001142217085 L 507.4220142171421,283.02001142217085 L 502.6220142171419,283.02001142217085 L 502.6220142171419,263.02001142217097 L 507.4220142171421,263.0200114221709 L 507.4220142171421,243.02001142217088 L 502.6220142171419,243.02001142217074 L 502.6220142171419,223.02001142217097 L 507.4220142171421,223.02001142217077 L 507.4220142171421,203.0200114221707 L 502.6220142171419,203.02001142217074 L 502.6220142171419,183.02001142217102 L 507.4220142171421,183.02001142217094 L 507.4220142171421,172.0200114221709 L 529.6220142171419,172.02001142217085 L 529.6220142171419,176.82001142217064 L 549.6220142171421,176.820011422171 L 549.6220142171421,172.02001142217105 L 569.6220142171424,172.0200114221704 L 569.6220142171421,176.8200114221709 L 589.6220142171421,176.82001142217098 L 589.6220142171421,172.0200114221712 L 611.8220142171419,172.02001142217074 L 611.8220142171419,183.02001142217114 L 616.6220142171421,183.0200114221709 L 616.6220142171421,203.02001142217085 L 611.8220142171419,203.0200114221708 L 611.8220142171419,223.02001142217082 L 616.6220142171421,223.02001142217097 L 616.6220142171421,243.02001142217097 L 611.8220142171419,243.02001142217082 L 611.8220142171419,263.02001142217097 L 616.6220142171421,263.0200114221708 L 616.6220142171421,283.0200114221708 L 611.8220142171419,283.02001142217085 L 611.8220142171419,303.0200114221706 L 616.6220142171421,303.02001142217114 L 616.6220142171421,323.020011422171 L 611.8220142171419,323.0200114221708 L 611.8220142171419,343.02001142217085 L 616.6220142171421,343.0200114221708 L 616.6220142171421,363.020011422171 L 611.8220142171422,363.0200114221708 L 611.8220142171422,383.0200114221706 L 616.6220142171421,383.02001142217085 L 616.6220142171421,403.0200114221709 L 611.8220142171419,403.02001142217085 L 611.8220142171419,423.02001142217085 L 616.6220142171421,423.02001142217097 L 616.6220142171421,443.0200114221706 L 611.8220142171419,443.02001142217085 L 611.8220142171422,463.0200114221709 L 616.6220142171421,463.0200114221707 L 616.6220142171421,483.02001142217085 L 611.8220142171419,483.02001142217085 L 611.8220142171422,503.0200114221709 L 616.6220142171421,503.0200114221708 L 616.6220142171421,523.0200114221709 L 611.8220142171419,523.0200114221709 L 611.8220142171422,543.0200114221709 L 616.6220142171421,543.0200114221709 L 616.6220142171421,563.020011422171 L 611.8220142171424,563.020011422171 L 611.8220142171422,583.0200114221708 L 616.6220142171421,583.0200114221708 M 61.04199212734295,392.2181053398354 L 165.44199212734304,392.21810533983546 L 165.44199212734304,412.71810533983546 L 170.2419921273431,412.71810533983546 L 170.2419921273431,432.7181053398354 L 165.44199212734304,432.7181053398356 L 165.44199212734293,452.71810533983546 L 170.241992127343,452.7181053398356 L 170.2419921273431,472.71810533983535 L 165.44199212734304,472.7181053398354 L 165.44199212734304,492.71810533983546 L 170.2419921273431,492.71810533983546 L 170.241992127343,512.7181053398355 L 165.44199212734304,512.7181053398355 L 165.44199212734304,532.7181053398355 L 170.241992127343,532.7181053398355 L 170.2419921273431,552.7181053398355 L 165.44199212734304,552.7181053398355 L 165.44199212734293,572.7181053398355 L 170.241992127343,572.7451503755557 L 170.2419921273431,592.7181053398353 L 165.44199212734304,592.7181053398353 L 165.44199212734304,613.2181053398353 L 143.241992127343,613.2181053398355 L 143.24199212734288,608.4181053398354 L 123.24199212734288,608.4181053398354 L 123.24199212734288,613.2181053398355 L 103.24199212734277,613.2181053398355 L 103.24199212734288,608.4181053398354 L 83.24199212734288,608.4181053398354 L 83.24199212734288,613.2181053398355 L 61.04199212734284,613.2181053398355 L 61.04199212734295,592.7181053398353 L 56.24199212734288,592.7181053398353 L 56.24199212734288,572.7181053398355 L 61.04199212734295,572.7181053398355 L 61.04199212734295,552.7181053398353 L 56.24199212734288,552.7181053398355 L 56.241992127342996,532.7181053398355 L 61.04199212734295,532.7181053398355 L 61.04199212734295,512.7181053398353 L 56.24199212734288,512.7181053398353 L 56.241992127342996,492.71810533983546 L 61.04199212734295,492.71810533983546 L 61.04199212734295,472.7181053398354 L 56.241992127342996,472.71810533983535 L 56.241992127342996,452.71810533983535 L 61.04199212734295,452.7181053398356 L 61.04199212734295,432.7181053398355 L 56.241992127342996,432.7181053398354 L 56.241992127342996,412.7181053398354 L 61.04199212734295,412.71810533983546 L 61.04199212734295,392.2181053398354 M 1214.13258574527,14.091301572944122 L 1225.1325857452705,14.091301572918066 L 1225.1325857452705,24.09130157291357 L 1220.33258574527,24.091301572914766 L 1220.33258574527,44.091301572914276 L 1225.1325857452705,44.091301572917885 L 1225.1325857452705,64.09130157292324 L 1220.33258574527,64.09130157291932 L 1220.33258574527,84.09130157291972 L 1225.13258574527,84.09130157292306 L 1225.1325857452705,104.09130157292071 L 1220.33258574527,104.09130157292255 L 1220.33258574527,124.09130157292083 L 1225.1325857452705,124.09130157291918 L 1225.1325857452705,144.09130157292134 L 1220.33258574527,144.0913015729197 L 1220.33258574527,164.0913015729218 L 1225.1325857452705,164.09130157292125 L 1225.1325857452705,184.09130157292066 L 1220.33258574527,184.09130157292094 L 1220.33258574527,204.09130157292032 L 1225.13258574527,204.0913015729213 L 1225.1325857452705,224.09130157292074 L 1220.33258574527,224.0913015729212 L 1220.33258574527,244.0913015729211 L 1225.1325857452705,244.09130157292066 L 1225.1325857452705,264.091301572921 L 1220.33258574527,264.091301572921 L 1220.33258574527,284.09130157292134 L 1225.1325857452705,284.0913015729212 L 1225.1325857452705,304.09130157292043 L 1220.33258574527,304.091301572921 L 1220.33258574527,324.0913015729209 L 1225.1325857452705,324.0913015729212 L 1225.1325857452705,334.0913015729212 L 1204.63258574527,334.09130157292157 L 1204.63258574527,329.2913015729214 L 1184.6325857452703,329.29130157292116 L 1184.6325857452703,334.0913015729207 L 1164.6325857452705,334.09130157292157 L 1164.6325857452705,329.29130157292053 L 1144.6325857452703,329.2913015729212 L 1144.6325857452703,334.0913015729212 L 1124.63258574527,334.0913015729211 L 1124.63258574527,329.291301572921 L 1104.6325857452703,329.29130157292144 L 1104.6325857452703,334.0913015729211 L 1084.6325857452703,334.0913015729216 L 1084.6325857452703,329.2913015729218 L 1064.63258574527,329.29130157292167 L 1064.63258574527,334.09130157292105 L 1044.6325857452703,334.0913015729211 L 1044.6325857452703,329.29130157292076 L 1024.63258574527,329.2913015729214 L 1024.63258574527,334.0913015729212 L 1004.13258574527,334.0913015729209 L 783.1325857452703,113.09130157292111 L 783.1325857452703,14.09130157293084 L 794.1325857452703,14.091301572906751 L 794.1325857452703,18.891301572926775 L 814.1325857452703,18.891301572928036 L 814.1325857452703,14.091301572913885 L 834.1325857452703,14.091301572917978 L 834.1325857452703,18.891301572918238 L 854.13258574527,18.891301572912262 L 854.13258574527,14.0913015729122 L 874.13258574527,14.091301572923205 L 874.13258574527,18.891301572910333 L 894.1325857452703,18.89130157291509 L 894.1325857452703,14.091301572941395 L 914.1325857452703,14.091301572927605 L 914.1325857452703,18.891301572919257 L 934.13258574527,18.89130157292248 L 934.13258574527,14.091301572936537 L 954.1325857452703,14.091301572909789 L 954.1325857452703,18.891301572912845 L 974.1325857452703,18.891301572904013 L 974.1325857452703,14.09130157290846 L 994.1325857452703,14.091301572926675 L 994.1325857452703,18.8913015729088 L 1014.1325857452703,18.891301572909377 L 1014.1325857452703,14.091301572948124 L 1034.13258574527,14.09130157290711 L 1034.13258574527,18.89130157291408 L 1054.1325857452703,18.891301572906293 L 1054.1325857452703,14.091301572921722 L 1074.13258574527,14.091301572900216 L 1074.13258574527,18.891301572918763 L 1094.1325857452703,18.89130157291457 L 1094.1325857452698,14.091301572955786 L 1114.1325857452703,14.09130157291289 L 1114.1325857452703,18.89130157290874 L 1134.13258574527,18.891301572933134 L 1134.13258574527,14.091301572964754 L 1154.1325857452703,14.091301572930945 L 1154.1325857452703,18.891301572925695 L 1174.1325857452705,18.891301572932576 L 1174.13258574527,14.09130157295398 L 1194.1325857452703,14.091301572901344 L 1194.1325857452703,18.89130157293186 L 1214.13258574527,18.891301572912624 L 1214.13258574527,14.091301572944122 M 490.55397301873586,128.99543603148453 L 470.55397301873586,128.99543603148427 L 470.55397301873586,124.19543603148433 L 465.35397301873604,124.1954360314846 L 465.35397301873604,101.9954360314842 L 460.5539730187361,101.99543603148446 L 460.5539730187361,81.99543603148445 L 465.35397301873604,81.99543603148477 L 465.35397301873604,61.995436031484964 L 460.5539730187361,61.99543603148451 L 460.5539730187361,41.99543603148432 L 465.35397301873604,41.99543603148417 L 465.35397301873604,19.795436031485895 L 470.55397301873586,19.795436031483924 L 470.55397301873586,14.995436031483564 L 490.55397301873586,14.995436031484447 L 490.55397301873586,19.79543603148138 L 510.5539730187361,19.795436031483067 L 510.55397301873586,14.995436031487404 L 530.5539730187361,14.995436031473897 L 530.5539730187361,19.795436031487448 L 550.5539730187359,19.79543603148491 L 550.5539730187359,14.9954360314875 L 570.5539730187359,14.995436031475396 L 570.5539730187359,19.795436031484968 L 590.5539730187359,19.795436031481074 L 590.5539730187359,14.995436031487941 L 610.5539730187359,14.995436031492694 L 610.5539730187361,19.795436031485767 L 630.5539730187361,19.795436031488713 L 630.5539730187361,14.99543603148286 L 650.5539730187359,14.995436031478413 L 650.5539730187359,19.795436031482005 L 670.5539730187359,19.795436031487245 L 670.5539730187359,14.995436031474615 L 690.5539730187361,14.995436031487847 L 690.5539730187361,19.795436031484265 L 710.5539730187359,19.795436031491015 L 710.5539730187361,14.995436031493458 L 730.5539730187361,14.995436031489817 L 730.5539730187361,19.7954360314877 L 750.5539730187359,19.795436031490183 L 750.5539730187359,14.995436031493067 L 770.5539730187359,14.995436031492623 L 770.5539730187359,19.795436031486968 L 775.7539730187359,19.795436031493285 L 775.7539730187361,41.99543603148341 L 780.5539730187361,41.99543603148325 L 780.5539730187359,61.99543603148506 L 775.7539730187359,61.9954360314847 L 775.7539730187359,81.99543603148518 L 780.5539730187361,81.99543603148463 L 780.5539730187361,101.99543603148432 L 775.7539730187359,101.99543603148418 L 775.7539730187359,124.1954360314845 L 770.5539730187359,124.19543603148423 L 770.5539730187359,128.99543603148473 L 750.5539730187359,128.99543603148476 L 750.5539730187359,124.19543603148438 L 730.5539730187361,124.19543603148462 L 730.5539730187361,128.99543603148481 L 710.5539730187361,128.99543603148442 L 710.5539730187361,124.19543603148449 L 690.5539730187361,124.19543603148445 L 690.5539730187361,128.99543603148442 L 670.5539730187359,128.99543603148425 L 670.5539730187359,124.19543603148426 L 650.5539730187359,124.19543603148419 L 650.5539730187359,128.9954360314846 L 630.5539730187361,128.99543603148436 L 630.5539730187361,124.19543603148435 L 610.5539730187359,124.19543603148483 L 610.5539730187359,128.99543603148427 L 590.5539730187361,128.99543603148393 L 590.5539730187359,124.19543603148426 L 570.5539730187359,124.19543603148426 L 570.5539730187359,128.99543603148436 L 550.5539730187359,128.9954360314843 L 550.5539730187359,124.19543603148453 L 530.5539730187359,124.19543603148476 L 530.5539730187361,128.99543603148427 L 510.55397301873586,128.9954360314847 L 510.55397301873586,124.19543603148446 L 490.55397301873586,124.19543603148426 L 490.55397301873586,128.99543603148453 M 740.5320278498041,185.4786228530447 L 740.5320278498041,174.47862285304436 L 839.5320278498043,174.47862285304484 L 1060.5320278498043,395.47862285304456 L 1060.5320278498043,415.9786228530446 L 1055.732027849804,415.9786228530444 L 1055.7320278498044,435.9786228530447 L 1060.5320278498043,435.97862285304427 L 1060.5320278498043,455.97862285304444 L 1055.7320278498044,455.97862285304456 L 1055.7320278498044,475.9786228530444 L 1060.5320278498043,475.97862285304467 L 1060.5320278498043,495.97862285304444 L 1055.732027849804,495.97862285304456 L 1055.732027849804,515.9786228530447 L 1060.5320278498043,515.978622853045 L 1060.5320278498043,535.9786228530447 L 1055.732027849804,535.9786228530447 L 1055.732027849804,555.9786228530445 L 1060.5320278498043,555.9786228530448 L 1060.5320278498039,576.0056678887652 L 1055.732027849804,576.005667888765 L 1055.732027849804,595.9786228530443 L 1060.5320278498043,595.9786228530444 L 1060.5320278498043,616.4786228530442 L 1050.532027849804,616.4786228530444 L 1050.532027849804,611.6786228530445 L 1030.5320278498039,611.678622853045 L 1030.5320278498039,616.4786228530445 L 1010.5320278498041,616.4786228530448 L 1010.5320278498041,611.6786228530447 L 990.5320278498041,611.6786228530448 L 990.5320278498041,616.4786228530446 L 970.5320278498043,616.4786228530446 L 970.5320278498043,611.6786228530445 L 950.5320278498039,611.6786228530445 L 950.5320278498041,616.4786228530447 L 930.5320278498041,616.4786228530445 L 930.5320278498041,611.6786228530448 L 910.5320278498041,611.6786228530447 L 910.5320278498041,616.4786228530446 L 890.5320278498039,616.4786228530448 L 890.5320278498041,611.6786228530447 L 870.5320278498041,611.6786228530445 L 870.5320278498041,616.4786228530444 L 850.5320278498041,616.4786228530446 L 850.5320278498041,611.6786228530443 L 830.5320278498041,611.6786228530445 L 830.5320278498041,616.4786228530446 L 810.5320278498041,616.4786228530445 L 810.5320278498039,611.6786228530448 L 790.5320278498041,611.6786228530444 L 790.5320278498041,616.4786228530444 L 770.5320278498043,616.4786228530446 L 770.5320278498043,611.6786228530444 L 750.5320278498041,611.6786228530444 L 750.5320278498041,616.4786228530445 L 740.5320278498041,616.4786228530446 L 740.5320278498041,605.4786228530445 L 745.3320278498043,605.4786228530445 L 745.3320278498043,585.4786228530444 L 740.5320278498041,585.4786228530445 L 740.5320278498041,565.4786228530445 L 745.3320278498043,565.4786228530445 L 745.3320278498043,545.4786228530447 L 740.5320278498041,545.4786228530445 L 740.5320278498041,525.4786228530445 L 745.3320278498043,525.4786228530444 L 745.3320278498043,505.4786228530444 L 740.5320278498041,505.4786228530444 L 740.5320278498041,485.4786228530445 L 745.3320278498043,485.4786228530446 L 745.3320278498043,465.47862285304427 L 740.5320278498041,465.47862285304444 L 740.5320278498041,445.4786228530444 L 745.3320278498043,445.47862285304456 L 745.3320278498043,425.47862285304444 L 740.5320278498041,425.4786228530443 L 740.5320278498041,405.4786228530444 L 745.3320278498043,405.4786228530445 L 745.3320278498043,385.4786228530446 L 740.5320278498041,385.4786228530444 L 740.5320278498041,365.47862285304456 L 745.3320278498043,365.47862285304444 L 745.3320278498043,345.47862285304456 L 740.5320278498041,345.4786228530445 L 740.5320278498041,325.4786228530444 L 745.3320278498043,325.47862285304456 L 745.3320278498043,305.47862285304456 L 740.5320278498041,305.47862285304444 L 740.5320278498041,285.47862285304444 L 745.3320278498043,285.47862285304444 L 745.3320278498043,265.47862285304427 L 740.5320278498043,265.4786228530441 L 740.5320278498041,245.4786228530448 L 745.3320278498043,245.47862285304421 L 745.3320278498043,225.47862285304456 L 740.5320278498041,225.47862285304424 L 740.5320278498041,205.4786228530442 L 745.3320278498043,205.4786228530447 L 745.3320278498043,185.4786228530449 L 740.5320278498041,185.4786228530447 M 735.4652753093083,584.9985109799366 L 735.4652753093083,604.9985109799363 L 730.6652753093083,604.9985109799364 L 730.6652753093083,615.9985109799364 L 626.2652753093082,615.9985109799364 L 626.2652753093082,604.9985109799364 L 621.465275309308,604.9985109799367 L 621.465275309308,584.9985109799362 L 626.2652753093082,584.9985109799366 L 626.2652753093082,564.9985109799367 L 621.465275309308,564.9985109799364 L 621.465275309308,544.9985109799364 L 626.2652753093082,544.9985109799364 L 626.2652753093082,524.9985109799364 L 621.465275309308,524.9985109799367 L 621.465275309308,504.9985109799365 L 626.2652753093082,504.99851097993655 L 626.2652753093082,484.9985109799365 L 621.465275309308,484.9985109799365 L 621.465275309308,464.99851097993644 L 626.265275309308,464.9985109799364 L 626.265275309308,444.9985109799366 L 621.465275309308,444.9985109799366 L 621.465275309308,424.99851097993655 L 626.2652753093082,424.99851097993655 L 626.2652753093082,404.99851097993644 L 621.465275309308,404.9985109799364 L 621.465275309308,384.9985109799365 L 626.2652753093082,384.9985109799365 L 626.2652753093082,364.99851097993667 L 621.465275309308,364.9985109799365 L 621.465275309308,344.9985109799366 L 626.2652753093082,344.99851097993644 L 626.2652753093082,324.99851097993655 L 621.465275309308,324.9985109799365 L 621.465275309308,304.9985109799363 L 626.2652753093082,304.99851097993655 L 626.265275309308,284.9985109799365 L 621.465275309308,284.99851097993644 L 621.465275309308,264.9985109799364 L 626.265275309308,264.99851097993667 L 626.265275309308,244.9985109799365 L 621.465275309308,244.99851097993636 L 621.4652753093078,224.99851097993664 L 626.265275309308,224.99851097993673 L 626.265275309308,204.99851097993638 L 621.465275309308,204.99851097993627 L 621.465275309308,184.99851097993644 L 626.265275309308,184.99851097993636 L 626.2652753093078,173.9985109799365 L 648.465275309308,173.9985109799366 L 648.465275309308,178.79851097993625 L 668.465275309308,178.79851097993625 L 668.465275309308,173.9985109799364 L 688.465275309308,173.99851097993633 L 688.465275309308,178.79851097993622 L 708.4652753093083,178.79851097993614 L 708.465275309308,173.99851097993638 L 730.6652753093081,173.9985109799366 L 730.6652753093081,184.9985109799362 L 735.465275309308,184.99851097993655 L 735.4652753093083,204.99851097993616 L 730.6652753093081,204.99851097993664 L 730.6652753093081,224.99851097993627 L 735.465275309308,224.9985109799362 L 735.4652753093083,244.99851097993627 L 730.6652753093078,244.99851097993678 L 730.6652753093083,264.99851097993644 L 735.4652753093083,264.9985109799365 L 735.4652753093083,284.9985109799364 L 730.6652753093083,284.9985109799365 L 730.6652753093083,304.9985109799364 L 735.4652753093083,304.9985109799362 L 735.465275309308,324.99851097993667 L 730.6652753093083,324.9985109799363 L 730.6652753093083,344.9985109799364 L 735.4652753093083,344.9985109799363 L 735.465275309308,364.99851097993655 L 730.6652753093083,364.9985109799363 L 730.6652753093083,384.99851097993627 L 735.4652753093083,384.9985109799363 L 735.4652753093083,404.9985109799364 L 730.6652753093083,404.99851097993627 L 730.6652753093083,424.99851097993627 L 735.4652753093083,424.99851097993627 L 735.4652753093083,444.9985109799364 L 730.6652753093083,444.9985109799365 L 730.6652753093083,464.9985109799364 L 735.4652753093083,464.99851097993644 L 735.4652753093083,484.9985109799365 L 730.6652753093083,484.9985109799365 L 730.6652753093083,504.9985109799365 L 735.4652753093083,504.9985109799365 L 735.4652753093083,524.9985109799362 L 730.6652753093083,524.9985109799366 L 730.6652753093083,544.9985109799366 L 735.4652753093083,544.9985109799366 L 735.4652753093083,564.9985109799363 L 730.6652753093083,564.9985109799363 L 730.6652753093083,584.9985109799364 L 735.4652753093083,584.9985109799366 M 1070.653323197582,394.0178782944237 L 1175.0533231975821,394.0178782944237 L 1175.0533231975821,414.51787829442367 L 1179.8533231975825,414.51787829442316 L 1179.8533231975825,434.5178782944236 L 1175.0533231975821,434.5178782944236 L 1175.0533231975821,454.51787829442395 L 1179.8533231975825,454.5178782944232 L 1179.853323197582,474.51787829442367 L 1175.0533231975821,474.51787829442384 L 1175.0533231975821,494.5178782944238 L 1179.8533231975825,494.5178782944236 L 1179.8533231975825,514.5178782944238 L 1175.0533231975821,514.5178782944236 L 1175.0533231975821,534.5178782944237 L 1179.8533231975825,534.5178782944237 L 1179.8533231975825,554.5178782944232 L 1175.0533231975824,554.5178782944236 L 1175.0533231975821,574.5178782944233 L 1179.8533231975825,574.5449233301438 L 1179.8533231975825,594.5178782944236 L 1175.0533231975821,594.517878294424 L 1175.0533231975821,615.0178782944237 L 1152.8533231975825,615.0178782944234 L 1152.853323197582,610.2178782944235 L 1132.8533231975823,610.2178782944237 L 1132.8533231975823,615.0178782944237 L 1112.853323197582,615.0178782944237 L 1112.853323197582,610.2178782944237 L 1092.853323197582,610.2178782944237 L 1092.853323197582,615.017878294424 L 1070.653323197582,615.0178782944237 L 1070.653323197582,594.5178782944239 L 1065.8533231975823,594.5178782944237 L 1065.8533231975823,574.5178782944234 L 1070.653323197582,574.5178782944238 L 1070.653323197582,554.5178782944236 L 1065.8533231975823,554.5178782944236 L 1065.8533231975823,534.5178782944236 L 1070.653323197582,534.5178782944234 L 1070.653323197582,514.5178782944238 L 1065.8533231975823,514.5178782944236 L 1065.8533231975823,494.5178782944238 L 1070.653323197582,494.5178782944239 L 1070.653323197582,474.51787829442355 L 1065.8533231975823,474.51787829442384 L 1065.8533231975823,454.5178782944238 L 1070.653323197582,454.51787829442395 L 1070.6533231975825,434.5178782944231 L 1065.8533231975823,434.5178782944234 L 1065.8533231975823,414.51787829442344 L 1070.653323197582,414.5178782944238 L 1070.653323197582,394.0178782944237 M 498.843016191983,603.1810433239345 L 498.843016191983,614.1810433239345 L 488.843016191983,614.1810433239345 L 488.843016191983,609.3810433239345 L 468.843016191983,609.3810433239345 L 468.843016191983,614.1810433239344 L 448.8430161919832,614.1810433239344 L 448.8430161919832,609.3810433239345 L 428.84301619198345,609.3810433239345 L 428.84301619198345,614.1810433239342 L 408.8430161919832,614.1810433239344 L 408.8430161919832,609.3810433239345 L 388.8430161919832,609.3810433239345 L 388.8430161919832,614.1810433239344 L 368.8430161919831,614.1810433239344 L 368.8430161919831,609.3810433239345 L 348.8430161919831,609.3810433239344 L 348.8430161919831,614.1810433239343 L 328.84301619198334,614.1810433239342 L 328.8430161919832,609.3810433239345 L 308.8430161919832,609.3810433239343 L 308.843016191983,614.1810433239342 L 288.8430161919831,614.1810433239343 L 288.8430161919831,609.3810433239344 L 268.8430161919831,609.3810433239344 L 268.8430161919831,614.1810433239343 L 248.8430161919831,614.1810433239343 L 248.8430161919831,609.3810433239344 L 228.843016191983,609.3810433239343 L 228.843016191983,614.1810433239342 L 208.843016191983,614.1810433239342 L 208.843016191983,609.3810433239344 L 188.8430161919831,609.3810433239344 L 188.8430161919831,614.1810433239344 L 178.84301619198322,614.1810433239343 L 178.84301619198322,593.6810433239343 L 183.64301619198318,593.6810433239343 L 183.64301619198318,573.6810433239344 L 178.84301619198322,573.6810433239344 L 178.84301619198322,553.6810433239344 L 183.64301619198307,553.6810433239344 L 183.64301619198307,533.6810433239343 L 178.84301619198322,533.6810433239344 L 178.84301619198322,513.6810433239343 L 183.64301619198307,513.6810433239343 L 183.64301619198318,493.6810433239343 L 178.84301619198334,493.6810433239342 L 178.84301619198334,473.6810433239343 L 183.6430161919833,473.6810433239343 L 183.64301619198318,453.6810433239343 L 178.84301619198322,453.6810433239343 L 178.84301619198334,433.68104332393426 L 183.64301619198318,433.6810433239343 L 183.64301619198318,413.6810433239343 L 178.84301619198334,413.68104332393426 L 178.84301619198322,393.1810433239343 L 399.8430161919832,172.18104332393457 L 498.8430161919832,172.18104332393446 L 498.8430161919832,183.18104332393457 L 494.04301619198327,183.18104332393446 L 494.04301619198327,203.18104332393438 L 498.8430161919832,203.18104332393443 L 498.8430161919832,223.18104332393438 L 494.04301619198327,223.18104332393443 L 494.04301619198327,243.18104332393438 L 498.8430161919832,243.1810433239345 L 498.8430161919832,263.1810433239345 L 494.04301619198327,263.18104332393443 L 494.04301619198327,283.1810433239344 L 498.8430161919832,283.1810433239343 L 498.8430161919832,303.18104332393443 L 494.04301619198327,303.1810433239343 L 494.04301619198327,323.18104332393426 L 498.8430161919832,323.18104332393426 L 498.8430161919832,343.18104332393455 L 494.04301619198327,343.18104332393455 L 494.04301619198327,363.1810433239344 L 498.8430161919832,363.1810433239343 L 498.8430161919832,383.1810433239345 L 494.04301619198327,383.1810433239344 L 494.04301619198327,403.18104332393443 L 498.8430161919832,403.1810433239345 L 498.8430161919832,423.1810433239344 L 494.04301619198327,423.1810433239344 L 494.04301619198327,443.1810433239345 L 498.8430161919832,443.18104332393443 L 498.8430161919832,463.1810433239344 L 494.04301619198327,463.1810433239344 L 494.04301619198327,483.18104332393455 L 498.8430161919832,483.18104332393455 L 498.8430161919832,503.1810433239346 L 494.04301619198327,503.18104332393443 L 494.04301619198327,523.1810433239343 L 498.8430161919832,523.1810433239343 L 498.8430161919832,543.1810433239344 L 494.04301619198327,543.1810433239343 L 494.04301619198327,563.1810433239344 L 498.8430161919832,563.1810433239344 L 498.8430161919832,583.1810433239343 L 494.04301619198304,583.1810433239344 L 494.04301619198304,603.1810433239345 L 498.843016191983,603.1810433239345 M 443.8925872984064,12.507190412479137 L 454.8925872984064,12.50719041247768 L 454.8925872984066,111.50719041248124 L 233.89258729840662,332.5071904124816 L 213.39258729840662,332.5071904124816 L 213.39258729840662,327.70719041248157 L 193.39258729840662,327.7071904124816 L 193.39258729840674,332.5071904124816 L 173.39258729840662,332.5071904124816 L 173.39258729840662,327.7071904124816 L 153.39258729840674,327.7071904124817 L 153.39258729840674,332.5071904124817 L 133.39258729840674,332.50719041248163 L 133.39258729840662,327.7071904124817 L 113.39258729840674,327.70719041248174 L 113.39258729840662,332.5071904124817 L 93.39258729840674,332.50719041248163 L 93.39258729840674,327.70719041248174 L 73.39258729840662,327.70719041248174 L 73.39258729840662,332.5071904124817 L 53.36554226268629,332.50719041248175 L 53.365542262686404,327.7071904124818 L 33.392587298406625,327.70719041248185 L 33.39258729840674,332.50719041248175 L 12.892587298406738,332.50719041248175 L 12.892587298406625,322.50719041248186 L 17.69258729840658,322.50719041248186 L 17.69258729840658,302.5071904124818 L 12.892587298406625,302.50719041248186 L 12.892587298406625,282.5071904124818 L 17.69258729840658,282.5071904124818 L 17.69258729840658,262.5071904124818 L 12.892587298406625,262.5071904124818 L 12.892587298406625,242.5071904124818 L 17.69258729840658,242.50719041248175 L 17.692587298406465,222.5071904124818 L 12.89258729840651,222.5071904124818 L 12.89258729840651,202.50719041248178 L 17.692587298406465,202.50719041248178 L 17.692587298406465,182.50719041248183 L 12.89258729840651,182.5071904124818 L 12.89258729840651,162.50719041248178 L 17.692587298406465,162.5071904124818 L 17.692587298406465,142.50719041248172 L 12.892587298406397,142.50719041248172 L 12.892587298406397,122.50719041248175 L 17.692587298406465,122.50719041248175 L 17.692587298406465,102.5071904124817 L 12.892587298406397,102.5071904124817 L 12.892587298406397,82.50719041248173 L 17.692587298406465,82.50719041248172 L 17.692587298406465,62.50719041248176 L 12.892587298406397,62.507190412481776 L 12.892587298406397,42.50719041248172 L 17.69258729840635,42.50719041248172 L 17.69258729840635,22.507190412481755 L 12.892587298406397,22.507190412481762 L 12.892587298406397,12.507190412481776 L 23.892587298406397,12.507190412481773 L 23.892587298406397,17.307190412481766 L 43.89258729840628,17.307190412481773 L 43.89258729840628,12.507190412481748 L 63.89258729840628,12.507190412481492 L 63.89258729840628,17.30719041248167 L 83.89258729840628,17.30719041248162 L 83.89258729840628,12.507190412481581 L 103.89258729840628,12.507190412481716 L 103.89258729840628,17.30719041248174 L 123.8925872984064,17.307190412481738 L 123.8925872984064,12.50719041248138 L 143.89258729840628,12.50719041248222 L 143.89258729840628,17.307190412481695 L 163.8925872984064,17.30719041248108 L 163.89258729840628,12.507190412480876 L 183.8925872984064,12.507190412479817 L 183.8925872984064,17.30719041248155 L 203.8925872984064,17.307190412481795 L 203.8925872984064,12.5071904124832 L 223.8925872984064,12.507190412480153 L 223.8925872984064,17.307190412481383 L 243.89258729840628,17.307190412481706 L 243.89258729840628,12.507190412480389 L 263.8925872984063,12.507190412479236 L 263.8925872984063,17.307190412481344 L 283.8925872984064,17.307190412481276 L 283.8925872984064,12.507190412482213 L 303.8925872984064,12.507190412479385 L 303.8925872984064,17.3071904124812 L 323.8925872984064,17.307190412481223 L 323.8925872984064,12.507190412477742 L 343.8925872984063,12.507190412480453 L 343.8925872984063,17.3071904124814 L 363.8925872984065,17.307190412481525 L 363.8925872984063,12.507190412481767 L 383.8925872984063,12.50719041248587 L 383.8925872984064,17.307190412480505 L 403.8925872984064,17.307190412481773 L 403.8925872984064,12.50719041248119 L 423.8925872984064,12.507190412494584 L 423.8925872984064,17.3071904124817 L 443.8925872984064,17.30719041247885 L 443.8925872984064,12.507190412479137 "
  />
  <path id="face0-interior"
 style="fill:none;stroke:#FF0000;stroke-width:1;stroke-miterlimit:4;stroke-dasharray:none;stroke-linejoin:round;stroke-linecap:round"
        d="M 10.0,10.0 M 10.0,619.5999999999999 M 1229.2,619.5999999999998 M 1229.2,10.0 M 616.6220142171421,583.0200114221708 M 616.6220142171421,603.020011422171 M 611.8220142171422,603.0200114221707 M 611.8220142171422,614.020011422171 M 507.4220142171423,614.0200114221708 M 507.4220142171421,603.0200114221709 M 502.6220142171421,603.0200114221709 M 502.6220142171421,583.020011422171 M 507.4220142171421,583.0200114221711 M 507.4220142171421,563.020011422171 M 502.6220142171421,563.0200114221709 M 502.62201421714235,543.0200114221709 M 507.4220142171421,543.0200114221709 M 507.4220142171423,523.0200114221709 M 502.6220142171421,523.020011422171 M 502.6220142171421,503.0200114221708 M 507.4220142171421,503.02001142217097 M 507.4220142171421,483.02001142217085 M 502.6220142171421,483.020011422171 M 502.6220142171419,463.0200114221711 M 507.4220142171421,463.0200114221709 M 507.4220142171421,443.0200114221709 M 502.6220142171419,443.02001142217085 M 502.6220142171419,423.02001142217085 M 507.4220142171421,423.02001142217097 M 507.4220142171421,403.02001142217097 M 502.6220142171419,403.02001142217097 M 502.6220142171419,383.02001142217097 M 507.4220142171421,383.02001142217114 M 507.4220142171421,363.0200114221708 M 502.6220142171419,363.0200114221709 M 502.6220142171419,343.020011422171 M 507.4220142171421,343.02001142217085 M 507.4220142171421,323.0200114221709 M 502.6220142171419,323.0200114221709 M 502.6220142171419,303.02001142217097 M 507.4220142171421,303.02001142217085 M 507.4220142171421,283.02001142217085 M 502.6220142171419,283.02001142217085 M 502.6220142171419,263.02001142217097 M 507.4220142171421,263.0200114221709 M 507.4220142171421,243.02001142217088 M 502.6220142171419,243.02001142217074 M 502.6220142171419,223.02001142217097 M 507.4220142171421,223.02001142217077 M 507.4220142171421,203.0200114221707 M 502.6220142171419,203.02001142217074 M 502.6220142171419,183.02001142217102 M 507.4220142171421,183.02001142217094 M 507.4220142171421,172.0200114221709 M 529.6220142171419,172.02001142217085 M 529.6220142171419,176.82001142217064 M 549.6220142171421,176.820011422171 M 549.6220142171421,172.02001142217105 M 569.6220142171424,172.0200114221704 M 569.6220142171421,176.8200114221709 M 589.6220142171421,176.82001142217098 M 589.6220142171421,172.0200114221712 M 611.8220142171419,172.02001142217074 M 611.8220142171419,183.02001142217114 M 616.6220142171421,183.0200114221709 M 616.6220142171421,203.02001142217085 M 611.8220142171419,203.0200114221708 M 611.8220142171419,223.02001142217082 M 616.6220142171421,223.02001142217097 M 616.6220142171421,243.02001142217097 M 611.8220142171419,243.02001142217082 M 611.8220142171419,263.02001142217097 M 616.6220142171421,263.0200114221708 M 616.6220142171421,283.0200114221708 M 611.8220142171419,283.02001142217085 M 611.8220142171419,303.0200114221706 M 616.6220142171421,303.02001142217114 M 616.6220142171421,323.020011422171 M 611.8220142171419,323.0200114221708 M 611.8220142171419,343.02001142217085 M 616.6220142171421,343.0200114221708 M 616.6220142171421,363.020011422171 M 611.8220142171422,363.0200114221708 M 611.8220142171422,383.0200114221706 M 616.6220142171421,383.02001142217085 M 616.6220142171421,403.0200114221709 M 611.8220142171419,403.02001142217085 M 611.8220142171419,423.02001142217085 M 616.6220142171421,423.02001142217097 M 616.6220142171421,443.0200114221706 M 611.8220142171419,443.02001142217085 M 611.8220142171422,463.0200114221709 M 616.6220142171421,463.0200114221707 M 616.6220142171421,483.02001142217085 M 611.8220142171419,483.02001142217085 M 611.8220142171422,503.0200114221709 M 616.6220142171421,503.0200114221708 M 616.6220142171421,523.0200114221709 M 611.8220142171419,523.0200114221709 M 611.8220142171422,543.0200114221709 M 616.6220142171421,543.0200114221709 M 616.6220142171421,563.020011422171 M 611.8220142171424,563.020011422171 M 611.8220142171422,583.0200114221708 M 61.04199212734295,392.2181053398354 M 165.44199212734304,392.21810533983546 M 165.44199212734304,412.71810533983546 M 170.2419921273431,412.71810533983546 M 170.2419921273431,432.7181053398354 M 165.44199212734304,432.7181053398356 M 165.44199212734293,452.71810533983546 M 170.241992127343,452.7181053398356 M 170.2419921273431,472.71810533983535 M 165.44199212734304,472.7181053398354 M 165.44199212734304,492.71810533983546 M 170.2419921273431,492.71810533983546 M 170.241992127343,512.7181053398355 M 165.44199212734304,512.7181053398355 M 165.44199212734304,532.7181053398355 M 170.241992127343,532.7181053398355 M 170.2419921273431,552.7181053398355 M 165.44199212734304,552.7181053398355 M 165.44199212734293,572.7181053398355 M 170.241992127343,572.7451503755557 M 170.2419921273431,592.7181053398353 M 165.44199212734304,592.7181053398353 M 165.44199212734304,613.2181053398353 M 143.241992127343,613.2181053398355 M 143.24199212734288,608.4181053398354 M 123.24199212734288,608.4181053398354 M 123.24199212734288,613.2181053398355 M 103.24199212734277,613.2181053398355 M 103.24199212734288,608.4181053398354 M 83.24199212734288,608.4181053398354 M 83.24199212734288,613.2181053398355 M 61.04199212734284,613.2181053398355 M 61.04199212734295,592.7181053398353 M 56.24199212734288,592.7181053398353 M 56.24199212734288,572.7181053398355 M 61.04199212734295,572.7181053398355 M 61.04199212734295,552.7181053398353 M 56.24199212734288,552.7181053398355 M 56.241992127342996,532.7181053398355 M 61.04199212734295,532.7181053398355 M 61.04199212734295,512.7181053398353 M 56.24199212734288,512.7181053398353 M 56.241992127342996,492.71810533983546 M 61.04199212734295,492.71810533983546 M 61.04199212734295,472.7181053398354 M 56.241992127342996,472.71810533983535 M 56.241992127342996,452.71810533983535 M 61.04199212734295,452.7181053398356 M 61.04199212734295,432.7181053398355 M 56.241992127342996,432.7181053398354 M 56.241992127342996,412.7181053398354 M 61.04199212734295,412.71810533983546 M 1214.13258574527,14.091301572944122 M 1225.1325857452705,14.091301572918066 M 1225.1325857452705,24.09130157291357 M 1220.33258574527,24.091301572914766 M 1220.33258574527,44.091301572914276 M 1225.1325857452705,44.091301572917885 M 1225.1325857452705,64.09130157292324 M 1220.33258574527,64.09130157291932 M 1220.33258574527,84.09130157291972 M 1225.13258574527,84.09130157292306 M 1225.1325857452705,104.09130157292071 M 1220.33258574527,104.09130157292255 M 1220.33258574527,124.09130157292083 M 1225.1325857452705,124.09130157291918 M 1225.1325857452705,144.09130157292134 M 1220.33258574527,144.0913015729197 M 1220.33258574527,164.0913015729218 M 1225.1325857452705,164.09130157292125 M 1225.1325857452705,184.09130157292066 M 1220.33258574527,184.09130157292094 M 1220.33258574527,204.09130157292032 M 1225.13258574527,204.0913015729213 M 1225.1325857452705,224.09130157292074 M 1220.33258574527,224.0913015729212 M 1220.33258574527,244.0913015729211 M 1225.1325857452705,244.09130157292066 M 1225.1325857452705,264.091301572921 M 1220.33258574527,264.091301572921 M 1220.33258574527,284.09130157292134 M 1225.1325857452705,284.0913015729212 M 1225.1325857452705,304.09130157292043 M 1220.33258574527,304.091301572921 M 1220.33258574527,324.0913015729209 M 1225.1325857452705,324.0913015729212 M 1225.1325857452705,334.0913015729212 M 1204.63258574527,334.09130157292157 M 1204.63258574527,329.2913015729214 M 1184.6325857452703,329.29130157292116 M 1184.6325857452703,334.0913015729207 M 1164.6325857452705,334.09130157292157 M 1164.6325857452705,329.29130157292053 M 1144.6325857452703,329.2913015729212 M 1144.6325857452703,334.0913015729212 M 1124.63258574527,334.0913015729211 M 1124.63258574527,329.291301572921 M 1104.6325857452703,329.29130157292144 M 1104.6325857452703,334.0913015729211 M 1084.6325857452703,334.0913015729216 M 1084.6325857452703,329.2913015729218 M 1064.63258574527,329.29130157292167 M 1064.63258574527,334.09130157292105 M 1044.6325857452703,334.0913015729211 M 1044.6325857452703,329.29130157292076 M 1024.63258574527,329.2913015729214 M 1024.63258574527,334.0913015729212 M 1004.13258574527,334.0913015729209 M 783.1325857452703,113.09130157292111 M 783.1325857452703,14.09130157293084 M 794.1325857452703,14.091301572906751 M 794.1325857452703,18.891301572926775 M 814.1325857452703,18.891301572928036 M 814.1325857452703,14.091301572913885 M 834.1325857452703,14.091301572917978 M 834.1325857452703,18.891301572918238 M 854.13258574527,18.891301572912262 M 854.13258574527,14.0913015729122 M 874.13258574527,14.091301572923205 M 874.13258574527,18.891301572910333 M 894.1325857452703,18.89130157291509 M 894.1325857452703,14.091301572941395 M 914.1325857452703,14.091301572927605 M 914.1325857452703,18.891301572919257 M 934.13258574527,18.89130157292248 M 934.13258574527,14.091301572936537 M 954.1325857452703,14.091301572909789 M 954.1325857452703,18.891301572912845 M 974.1325857452703,18.891301572904013 M 974.1325857452703,14.09130157290846 M 994.1325857452703,14.091301572926675 M 994.1325857452703,18.8913015729088 M 1014.1325857452703,18.891301572909377 M 1014.1325857452703,14.091301572948124 M 1034.13258574527,14.09130157290711 M 1034.13258574527,18.89130157291408 M 1054.1325857452703,18.891301572906293 M 1054.1325857452703,14.091301572921722 M 1074.13258574527,14.091301572900216 M 1074.13258574527,18.891301572918763 M 1094.1325857452703,18.89130157291457 M 1094.1325857452698,14.091301572955786 M 1114.1325857452703,14.09130157291289 M 1114.1325857452703,18.89130157290874 M 1134.13258574527,18.891301572933134 M 1134.13258574527,14.091301572964754 M 1154.1325857452703,14.091301572930945 M 1154.1325857452703,18.891301572925695 M 1174.1325857452705,18.891301572932576 M 1174.13258574527,14.09130157295398 M 1194.1325857452703,14.091301572901344 M 1194.1325857452703,18.89130157293186 M 1214.13258574527,18.891301572912624 M 490.55397301873586,128.99543603148453 M 470.55397301873586,128.99543603148427 M 470.55397301873586,124.19543603148433 M 465.35397301873604,124.1954360314846 M 465.35397301873604,101.9954360314842 M 460.5539730187361,101.99543603148446 M 460.5539730187361,81.99543603148445 M 465.35397301873604,81.99543603148477 M 465.35397301873604,61.995436031484964 M 460.5539730187361,61.99543603148451 M 460.5539730187361,41.99543603148432 M 465.35397301873604,41.99543603148417 M 465.35397301873604,19.795436031485895 M 470.55397301873586,19.795436031483924 M 470.55397301873586,14.995436031483564 M 490.55397301873586,14.995436031484447 M 490.55397301873586,19.79543603148138 M 510.5539730187361,19.795436031483067 M 510.55397301873586,14.995436031487404 M 530.5539730187361,14.995436031473897 M 530.5539730187361,19.795436031487448 M 550.5539730187359,19.79543603148491 M 550.5539730187359,14.9954360314875 M 570.5539730187359,14.995436031475396 M 570.5539730187359,19.795436031484968 M 590.5539730187359,19.795436031481074 M 590.5539730187359,14.995436031487941 M 610.5539730187359,14.995436031492694 M 610.5539730187361,19.795436031485767 M 630.5539730187361,19.795436031488713 M 630.5539730187361,14.99543603148286 M 650.5539730187359,14.995436031478413 M 650.5539730187359,19.795436031482005 M 670.5539730187359,19.795436031487245 M 670.5539730187359,14.995436031474615 M 690.5539730187361,14.995436031487847 M 690.5539730187361,19.795436031484265 M 710.5539730187359,19.795436031491015 M 710.5539730187361,14.995436031493458 M 730.5539730187361,14.995436031489817 M 730.5539730187361,19.7954360314877 M 750.5539730187359,19.795436031490183 M 750.5539730187359,14.995436031493067 M 770.5539730187359,14.995436031492623 M 770.5539730187359,19.795436031486968 M 775.7539730187359,19.795436031493285 M 775.7539730187361,41.99543603148341 M 780.5539730187361,41.99543603148325 M 780.5539730187359,61.99543603148506 M 775.7539730187359,61.9954360314847 M 775.7539730187359,81.99543603148518 M 780.5539730187361,81.99543603148463 M 780.5539730187361,101.99543603148432 M 775.7539730187359,101.99543603148418 M 775.7539730187359,124.1954360314845 M 770.5539730187359,124.19543603148423 M 770.5539730187359,128.99543603148473 M 750.5539730187359,128.99543603148476 M 750.5539730187359,124.19543603148438 M 730.5539730187361,124.19543603148462 M 730.5539730187361,128.99543603148481 M 710.5539730187361,128.99543603148442 M 710.5539730187361,124.19543603148449 M 690.5539730187361,124.19543603148445 M 690.5539730187361,128.99543603148442 M 670.5539730187359,128.99543603148425 M 670.5539730187359,124.19543603148426 M 650.5539730187359,124.19543603148419 M 650.5539730187359,128.9954360314846 M 630.5539730187361,128.99543603148436 M 630.5539730187361,124.19543603148435 M 610.5539730187359,124.19543603148483 M 610.5539730187359,128.99543603148427 M 590.5539730187361,128.99543603148393 M 590.5539730187359,124.19543603148426 M 570.5539730187359,124.19543603148426 M 570.5539730187359,128.99543603148436 M 550.5539730187359,128.9954360314843 M 550.5539730187359,124.19543603148453 M 530.5539730187359,124.19543603148476 M 530.5539730187361,128.99543603148427 M 510.55397301873586,128.9954360314847 M 510.55397301873586,124.19543603148446 M 490.55397301873586,124.19543603148426 M 740.5320278498041,185.4786228530447 M 740.5320278498041,174.47862285304436 M 839.5320278498043,174.47862285304484 M 1060.5320278498043,395.47862285304456 M 1060.5320278498043,415.9786228530446 M 1055.732027849804,415.9786228530444 M 1055.7320278498044,435.9786228530447 M 1060.5320278498043,435.97862285304427 M 1060.5320278498043,455.97862285304444 M 1055.7320278498044,455.97862285304456 M 1055.7320278498044,475.9786228530444 M 1060.5320278498043,475.97862285304467 M 1060.5320278498043,495.97862285304444 M 1055.732027849804,495.97862285304456 M 1055.732027849804,515.9786228530447 M 1060.5320278498043,515.978622853045 M 1060.5320278498043,535.9786228530447 M 1055.732027849804,535.9786228530447 M 1055.732027849804,555.9786228530445 M 1060.5320278498043,555.9786228530448 M 1060.5320278498039,576.0056678887652 M 1055.732027849804,576.005667888765 M 1055.732027849804,595.9786228530443 M 1060.5320278498043,595.9786228530444 M 1060.5320278498043,616.4786228530442 M 1050.532027849804,616.4786228530444 M 1050.532027849804,611.6786228530445 M 1030.5320278498039,611.678622853045 M 1030.5320278498039,616.4786228530445 M 1010.5320278498041,616.4786228530448 M 1010.5320278498041,611.6786228530447 M 990.5320278498041,611.6786228530448 M 990.5320278498041,616.4786228530446 M 970.5320278498043,616.4786228530446 M 970.5320278498043,611.6786228530445 M 950.5320278498039,611.6786228530445 M 950.5320278498041,616.4786228530447 M 930.5320278498041,616.4786228530445 M 930.5320278498041,611.6786228530448 M 910.5320278498041,611.6786228530447 M 910.5320278498041,616.4786228530446 M 890.5320278498039,616.4786228530448 M 890.5320278498041,611.6786228530447 M 870.5320278498041,611.6786228530445 M 870.5320278498041,616.4786228530444 M 850.5320278498041,616.4786228530446 M 850.5320278498041,611.6786228530443 M 830.5320278498041,611.6786228530445 M 830.5320278498041,616.4786228530446 M 810.5320278498041,616.4786228530445 M 810.5320278498039,611.6786228530448 M 790.5320278498041,611.6786228530444 M 790.5320278498041,616.4786228530444 M 770.5320278498043,616.4786228530446 M 770.5320278498043,611.6786228530444 M 750.5320278498041,611.6786228530444 M 750.5320278498041,616.4786228530445 M 740.5320278498041,616.4786228530446 M 740.5320278498041,605.4786228530445 M 745.3320278498043,605.4786228530445 M 745.3320278498043,585.4786228530444 M 740.5320278498041,585.4786228530445 M 740.5320278498041,565.4786228530445 M 745.3320278498043,565.4786228530445 M 745.3320278498043,545.4786228530447 M 740.5320278498041,545.4786228530445 M 740.5320278498041,525.4786228530445 M 745.3320278498043,525.4786228530444 M 745.3320278498043,505.4786228530444 M 740.5320278498041,505.4786228530444 M 740.5320278498041,485.4786228530445 M 745.3320278498043,485.4786228530446 M 745.3320278498043,465.47862285304427 M 740.5320278498041,465.47862285304444 M 740.5320278498041,445.4786228530444 M 745.3320278498043,445.47862285304456 M 745.3320278498043,425.47862285304444 M 740.5320278498041,425.4786228530443 M 740.5320278498041,405.4786228530444 M 745.3320278498043,405.4786228530445 M 745.3320278498043,385.4786228530446 M 740.5320278498041,385.4786228530444 M 740.5320278498041,365.47862285304456 M 745.3320278498043,365.47862285304444 M 745.3320278498043,345.47862285304456 M 740.5320278498041,345.4786228530445 M 740.5320278498041,325.4786228530444 M 745.3320278498043,325.47862285304456 M 745.3320278498043,305.47862285304456 M 740.5320278498041,305.47862285304444 M 740.5320278498041,285.47862285304444 M 745.3320278498043,285.47862285304444 M 745.3320278498043,265.47862285304427 M 740.5320278498043,265.4786228530441 M 740.5320278498041,245.4786228530448 M 745.3320278498043,245.47862285304421 M 745.3320278498043,225.47862285304456 M 740.5320278498041,225.47862285304424 M 740.5320278498041,205.4786228530442 M 745.3320278498043,205.4786228530447 M 745.3320278498043,185.4786228530449 M 735.4652753093083,584.9985109799366 M 735.4652753093083,604.9985109799363 M 730.6652753093083,604.9985109799364 M 730.6652753093083,615.9985109799364 M 626.2652753093082,615.9985109799364 M 626.2652753093082,604.9985109799364 M 621.465275309308,604.9985109799367 M 621.465275309308,584.9985109799362 M 626.2652753093082,584.9985109799366 M 626.2652753093082,564.9985109799367 M 621.465275309308,564.9985109799364 M 621.465275309308,544.9985109799364 M 626.2652753093082,544.9985109799364 M 626.2652753093082,524.9985109799364 M 621.465275309308,524.9985109799367 M 621.465275309308,504.9985109799365 M 626.2652753093082,504.99851097993655 M 626.2652753093082,484.9985109799365 M 621.465275309308,484.9985109799365 M 621.465275309308,464.99851097993644 M 626.265275309308,464.9985109799364 M 626.265275309308,444.9985109799366 M 621.465275309308,444.9985109799366 M 621.465275309308,424.99851097993655 M 626.2652753093082,424.99851097993655 M 626.2652753093082,404.99851097993644 M 621.465275309308,404.9985109799364 M 621.465275309308,384.9985109799365 M 626.2652753093082,384.9985109799365 M 626.2652753093082,364.99851097993667 M 621.465275309308,364.9985109799365 M 621.465275309308,344.9985109799366 M 626.2652753093082,344.99851097993644 M 626.2652753093082,324.99851097993655 M 621.465275309308,324.9985109799365 M 621.465275309308,304.9985109799363 M 626.2652753093082,304.99851097993655 M 626.265275309308,284.9985109799365 M 621.465275309308,284.99851097993644 M 621.465275309308,264.9985109799364 M 626.265275309308,264.99851097993667 M 626.265275309308,244.9985109799365 M 621.465275309308,244.99851097993636 M 621.4652753093078,224.99851097993664 M 626.265275309308,224.99851097993673 M 626.265275309308,204.99851097993638 M 621.465275309308,204.99851097993627 M 621.465275309308,184.99851097993644 M 626.265275309308,184.99851097993636 M 626.2652753093078,173.9985109799365 M 648.465275309308,173.9985109799366 M 648.465275309308,178.79851097993625 M 668.465275309308,178.79851097993625 M 668.465275309308,173.9985109799364 M 688.465275309308,173.99851097993633 M 688.465275309308,178.79851097993622 M 708.4652753093083,178.79851097993614 M 708.465275309308,173.99851097993638 M 730.6652753093081,173.9985109799366 M 730.6652753093081,184.9985109799362 M 735.465275309308,184.99851097993655 M 735.4652753093083,204.99851097993616 M 730.6652753093081,204.99851097993664 M 730.6652753093081,224.99851097993627 M 735.465275309308,224.9985109799362 M 735.4652753093083,244.99851097993627 M 730.6652753093078,244.99851097993678 M 730.6652753093083,264.99851097993644 M 735.4652753093083,264.9985109799365 M 735.4652753093083,284.9985109799364 M 730.6652753093083,284.9985109799365 M 730.6652753093083,304.9985109799364 M 735.4652753093083,304.9985109799362 M 735.465275309308,324.99851097993667 M 730.6652753093083,324.9985109799363 M 730.6652753093083,344.9985109799364 M 735.4652753093083,344.9985109799363 M 735.465275309308,364.99851097993655 M 730.6652753093083,364.9985109799363 M 730.6652753093083,384.99851097993627 M 735.4652753093083,384.9985109799363 M 735.4652753093083,404.9985109799364 M 730.6652753093083,404.99851097993627 M 730.6652753093083,424.99851097993627 M 735.4652753093083,424.99851097993627 M 735.4652753093083,444.9985109799364 M 730.6652753093083,444.9985109799365 M 730.6652753093083,464.9985109799364 M 735.4652753093083,464.99851097993644 M 735.4652753093083,484.9985109799365 M 730.6652753093083,484.9985109799365 M 730.6652753093083,504.9985109799365 M 735.4652753093083,504.9985109799365 M 735.4652753093083,524.9985109799362 M 730.6652753093083,524.9985109799366 M 730.6652753093083,544.9985109799366 M 735.4652753093083,544.9985109799366 M 735.4652753093083,564.9985109799363 M 730.6652753093083,564.9985109799363 M 730.6652753093083,584.9985109799364 M 1070.653323197582,394.0178782944237 M 1175.0533231975821,394.0178782944237 M 1175.0533231975821,414.51787829442367 M 1179.8533231975825,414.51787829442316 M 1179.8533231975825,434.5178782944236 M 1175.0533231975821,434.5178782944236 M 1175.0533231975821,454.51787829442395 M 1179.8533231975825,454.5178782944232 M 1179.853323197582,474.51787829442367 M 1175.0533231975821,474.51787829442384 M 1175.0533231975821,494.5178782944238 M 1179.8533231975825,494.5178782944236 M 1179.8533231975825,514.5178782944238 M 1175.0533231975821,514.5178782944236 M 1175.0533231975821,534.5178782944237 M 1179.8533231975825,534.5178782944237 M 1179.8533231975825,554.5178782944232 M 1175.0533231975824,554.5178782944236 M 1175.0533231975821,574.5178782944233 M 1179.8533231975825,574.5449233301438 M 1179.8533231975825,594.5178782944236 M 1175.0533231975821,594.517878294424 M 1175.0533231975821,615.0178782944237 M 1152.8533231975825,615.0178782944234 M 1152.853323197582,610.2178782944235 M 1132.8533231975823,610.2178782944237 M 1132.8533231975823,615.0178782944237 M 1112.853323197582,615.0178782944237 M 1112.853323197582,610.2178782944237 M 1092.853323197582,610.2178782944237 M 1092.853323197582,615.017878294424 M 1070.653323197582,615.0178782944237 M 1070.653323197582,594.5178782944239 M 1065.8533231975823,594.5178782944237 M 1065.8533231975823,574.5178782944234 M 1070.653323197582,574.5178782944238 M 1070.653323197582,554.5178782944236 M 1065.8533231975823,554.5178782944236 M 1065.8533231975823,534.5178782944236 M 1070.653323197582,534.5178782944234 M 1070.653323197582,514.5178782944238 M 1065.8533231975823,514.5178782944236 M 1065.8533231975823,494.5178782944238 M 1070.653323197582,494.5178782944239 M 1070.653323197582,474.51787829442355 M 1065.8533231975823,474.51787829442384 M 1065.8533231975823,454.5178782944238 M 1070.653323197582,454.51787829442395 M 1070.6533231975825,434.5178782944231 M 1065.8533231975823,434.5178782944234 M 1065.8533231975823,414.51787829442344 M 1070.653323197582,414.5178782944238 M 498.843016191983,603.1810433239345 M 498.843016191983,614.1810433239345 M 488.843016191983,614.1810433239345 M 488.843016191983,609.3810433239345 M 468.843016191983,609.3810433239345 M 468.843016191983,614.1810433239344 M 448.8430161919832,614.1810433239344 M 448.8430161919832,609.3810433239345 M 428.84301619198345,609.3810433239345 M 428.84301619198345,614.1810433239342 M 408.8430161919832,614.1810433239344 M 408.8430161919832,609.3810433239345 M 388.8430161919832,609.3810433239345 M 388.8430161919832,614.1810433239344 M 368.8430161919831,614.1810433239344 M 368.8430161919831,609.3810433239345 M 348.8430161919831,609.3810433239344 M 348.8430161919831,614.1810433239343 M 328.84301619198334,614.1810433239342 M 328.8430161919832,609.3810433239345 M 308.8430161919832,609.3810433239343 M 308.843016191983,614.1810433239342 M 288.8430161919831,614.1810433239343 M 288.8430161919831,609.3810433239344 M 268.8430161919831,609.3810433239344 M 268.8430161919831,614.1810433239343 M 248.8430161919831,614.1810433239343 M 248.8430161919831,609.3810433239344 M 228.843016191983,609.3810433239343 M 228.843016191983,614.1810433239342 M 208.843016191983,614.1810433239342 M 208.843016191983,609.3810433239344 M 188.8430161919831,609.3810433239344 M 188.8430161919831,614.1810433239344 M 178.84301619198322,614.1810433239343 M 178.84301619198322,593.6810433239343 M 183.64301619198318,593.6810433239343 M 183.64301619198318,573.6810433239344 M 178.84301619198322,573.6810433239344 M 178.84301619198322,553.6810433239344 M 183.64301619198307,553.6810433239344 M 183.64301619198307,533.6810433239343 M 178.84301619198322,533.6810433239344 M 178.84301619198322,513.6810433239343 M 183.64301619198307,513.6810433239343 M 183.64301619198318,493.6810433239343 M 178.84301619198334,493.6810433239342 M 178.84301619198334,473.6810433239343 M 183.6430161919833,473.6810433239343 M 183.64301619198318,453.6810433239343 M 178.84301619198322,453.6810433239343 M 178.84301619198334,433.68104332393426 M 183.64301619198318,433.6810433239343 M 183.64301619198318,413.6810433239343 M 178.84301619198334,413.68104332393426 M 178.84301619198322,393.1810433239343 M 399.8430161919832,172.18104332393457 M 498.8430161919832,172.18104332393446 M 498.8430161919832,183.18104332393457 M 494.04301619198327,183.18104332393446 M 494.04301619198327,203.18104332393438 M 498.8430161919832,203.18104332393443 M 498.8430161919832,223.18104332393438 M 494.04301619198327,223.18104332393443 M 494.04301619198327,243.18104332393438 M 498.8430161919832,243.1810433239345 M 498.8430161919832,263.1810433239345 M 494.04301619198327,263.18104332393443 M 494.04301619198327,283.1810433239344 M 498.8430161919832,283.1810433239343 M 498.8430161919832,303.18104332393443 M 494.04301619198327,303.1810433239343 M 494.04301619198327,323.18104332393426 M 498.8430161919832,323.18104332393426 M 498.8430161919832,343.18104332393455 M 494.04301619198327,343.18104332393455 M 494.04301619198327,363.1810433239344 M 498.8430161919832,363.1810433239343 M 498.8430161919832,383.1810433239345 M 494.04301619198327,383.1810433239344 M 494.04301619198327,403.18104332393443 M 498.8430161919832,403.1810433239345 M 498.8430161919832,423.1810433239344 M 494.04301619198327,423.1810433239344 M 494.04301619198327,443.1810433239345 M 498.8430161919832,443.18104332393443 M 498.8430161919832,463.1810433239344 M 494.04301619198327,463.1810433239344 M 494.04301619198327,483.18104332393455 M 498.8430161919832,483.18104332393455 M 498.8430161919832,503.1810433239346 M 494.04301619198327,503.18104332393443 M 494.04301619198327,523.1810433239343 M 498.8430161919832,523.1810433239343 M 498.8430161919832,543.1810433239344 M 494.04301619198327,543.1810433239343 M 494.04301619198327,563.1810433239344 M 498.8430161919832,563.1810433239344 M 498.8430161919832,583.1810433239343 M 494.04301619198304,583.1810433239344 M 494.04301619198304,603.1810433239345 M 443.8925872984064,12.507190412479137 M 454.8925872984064,12.50719041247768 M 454.8925872984066,111.50719041248124 M 233.89258729840662,332.5071904124816 M 213.39258729840662,332.5071904124816 M 213.39258729840662,327.70719041248157 M 193.39258729840662,327.7071904124816 M 193.39258729840674,332.5071904124816 M 173.39258729840662,332.5071904124816 M 173.39258729840662,327.7071904124816 M 153.39258729840674,327.7071904124817 M 153.39258729840674,332.5071904124817 M 133.39258729840674,332.50719041248163 M 133.39258729840662,327.7071904124817 M 113.39258729840674,327.70719041248174 M 113.39258729840662,332.5071904124817 M 93.39258729840674,332.50719041248163 M 93.39258729840674,327.70719041248174 M 73.39258729840662,327.70719041248174 M 73.39258729840662,332.5071904124817 M 53.36554226268629,332.50719041248175 M 53.365542262686404,327.7071904124818 M 33.392587298406625,327.70719041248185 M 33.39258729840674,332.50719041248175 M 12.892587298406738,332.50719041248175 M 12.892587298406625,322.50719041248186 M 17.69258729840658,322.50719041248186 M 17.69258729840658,302.5071904124818 M 12.892587298406625,302.50719041248186 M 12.892587298406625,282.5071904124818 M 17.69258729840658,282.5071904124818 M 17.69258729840658,262.5071904124818 M 12.892587298406625,262.5071904124818 M 12.892587298406625,242.5071904124818 M 17.69258729840658,242.50719041248175 M 17.692587298406465,222.5071904124818 M 12.89258729840651,222.5071904124818 M 12.89258729840651,202.50719041248178 M 17.692587298406465,202.50719041248178 M 17.692587298406465,182.50719041248183 M 12.89258729840651,182.5071904124818 M 12.89258729840651,162.50719041248178 M 17.692587298406465,162.5071904124818 M 17.692587298406465,142.50719041248172 M 12.892587298406397,142.50719041248172 M 12.892587298406397,122.50719041248175 M 17.692587298406465,122.50719041248175 M 17.692587298406465,102.5071904124817 M 12.892587298406397,102.5071904124817 M 12.892587298406397,82.50719041248173 M 17.692587298406465,82.50719041248172 M 17.692587298406465,62.50719041248176 M 12.892587298406397,62.507190412481776 M 12.892587298406397,42.50719041248172 M 17.69258729840635,42.50719041248172 M 17.69258729840635,22.507190412481755 M 12.892587298406397,22.507190412481762 M 12.892587298406397,12.507190412481776 M 23.892587298406397,12.507190412481773 M 23.892587298406397,17.307190412481766 M 43.89258729840628,17.307190412481773 M 43.89258729840628,12.507190412481748 M 63.89258729840628,12.507190412481492 M 63.89258729840628,17.30719041248167 M 83.89258729840628,17.30719041248162 M 83.89258729840628,12.507190412481581 M 103.89258729840628,12.507190412481716 M 103.89258729840628,17.30719041248174 M 123.8925872984064,17.307190412481738 M 123.8925872984064,12.50719041248138 M 143.89258729840628,12.50719041248222 M 143.89258729840628,17.307190412481695 M 163.8925872984064,17.30719041248108 M 163.89258729840628,12.507190412480876 M 183.8925872984064,12.507190412479817 M 183.8925872984064,17.30719041248155 M 203.8925872984064,17.307190412481795 M 203.8925872984064,12.5071904124832 M 223.8925872984064,12.507190412480153 M 223.8925872984064,17.307190412481383 M 243.89258729840628,17.307190412481706 M 243.89258729840628,12.507190412480389 M 263.8925872984063,12.507190412479236 M 263.8925872984063,17.307190412481344 M 283.8925872984064,17.307190412481276 M 283.8925872984064,12.507190412482213 M 303.8925872984064,12.507190412479385 M 303.8925872984064,17.3071904124812 M 323.8925872984064,17.307190412481223 M 323.8925872984064,12.507190412477742 M 343.8925872984063,12.507190412480453 M 343.8925872984063,17.3071904124814 M 363.8925872984065,17.307190412481525 M 363.8925872984063,12.507190412481767 M 383.8925872984063,12.50719041248587 M 383.8925872984064,17.307190412480505 M 403.8925872984064,17.307190412481773 M 403.8925872984064,12.50719041248119 M 423.8925872984064,12.507190412494584 M 423.8925872984064,17.3071904124817 M 443.8925872984064,17.30719041247885 "
  />
  <path id="face0-interior"
 style="fill:none;stroke:#00FF00;stroke-width:1;stroke-miterlimit:4;stroke-dasharray:none;stroke-linejoin:round;stroke-linecap:round"
        d="M 10.0,10.0 M 10.0,619.5999999999999 M 1229.2,619.5999999999998 M 1229.2,10.0 M 616.6220142171421,583.0200114221708 M 616.6220142171421,603.020011422171 M 611.8220142171422,603.0200114221707 M 611.8220142171422,614.020011422171 M 507.4220142171423,614.0200114221708 M 507.4220142171421,603.0200114221709 M 502.6220142171421,603.0200114221709 M 502.6220142171421,583.020011422171 M 507.4220142171421,583.0200114221711 M 507.4220142171421,563.020011422171 M 502.6220142171421,563.0200114221709 M 502.62201421714235,543.0200114221709 M 507.4220142171421,543.0200114221709 M 507.4220142171423,523.0200114221709 M 502.6220142171421,523.020011422171 M 502.6220142171421,503.0200114221708 M 507.4220142171421,503.02001142217097 M 507.4220142171421,483.02001142217085 M 502.6220142171421,483.020011422171 M 502.6220142171419,463.0200114221711 M 507.4220142171421,463.0200114221709 M 507.4220142171421,443.0200114221709 M 502.6220142171419,443.02001142217085 M 502.6220142171419,423.02001142217085 M 507.4220142171421,423.02001142217097 M 507.4220142171421,403.02001142217097 M 502.6220142171419,403.02001142217097 M 502.6220142171419,383.02001142217097 M 507.4220142171421,383.02001142217114 M 507.4220142171421,363.0200114221708 M 502.6220142171419,363.0200114221709 M 502.6220142171419,343.020011422171 M 507.4220142171421,343.02001142217085 M 507.4220142171421,323.0200114221709 M 502.6220142171419,323.0200114221709 M 502.6220142171419,303.02001142217097 M 507.4220142171421,303.02001142217085 M 507.4220142171421,283.02001142217085 M 502.6220142171419,283.02001142217085 M 502.6220142171419,263.02001142217097 M 507.4220142171421,263.0200114221709 M 507.4220142171421,243.02001142217088 M 502.6220142171419,243.02001142217074 M 502.6220142171419,223.02001142217097 M 507.4220142171421,223.02001142217077 M 507.4220142171421,203.0200114221707 M 502.6220142171419,203.02001142217074 M 502.6220142171419,183.02001142217102 M 507.4220142171421,183.02001142217094 M 507.4220142171421,172.0200114221709 M 529.6220142171419,172.02001142217085 M 529.6220142171419,176.82001142217064 M 549.6220142171421,176.820011422171 M 549.6220142171421,172.02001142217105 M 569.6220142171424,172.0200114221704 M 569.6220142171421,176.8200114221709 M 589.6220142171421,176.82001142217098 M 589.6220142171421,172.0200114221712 M 611.8220142171419,172.02001142217074 M 611.8220142171419,183.02001142217114 M 616.6220142171421,183.0200114221709 M 616.6220142171421,203.02001142217085 M 611.8220142171419,203.0200114221708 M 611.8220142171419,223.02001142217082 M 616.6220142171421,223.02001142217097 M 616.6220142171421,243.02001142217097 M 611.8220142171419,243.02001142217082 M 611.8220142171419,263.02001142217097 M 616.6220142171421,263.0200114221708 M 616.6220142171421,283.0200114221708 M 611.8220142171419,283.02001142217085 M 611.8220142171419,303.0200114221706 M 616.6220142171421,303.02001142217114 M 616.6220142171421,323.020011422171 M 611.8220142171419,323.0200114221708 M 611.8220142171419,343.02001142217085 M 616.6220142171421,343.0200114221708 M 616.6220142171421,363.020011422171 M 611.8220142171422,363.0200114221708 M 611.8220142171422,383.0200114221706 M 616.6220142171421,383.02001142217085 M 616.6220142171421,403.0200114221709 M 611.8220142171419,403.02001142217085 M 611.8220142171419,423.02001142217085 M 616.6220142171421,423.02001142217097 M 616.6220142171421,443.0200114221706 M 611.8220142171419,443.02001142217085 M 611.8220142171422,463.0200114221709 M 616.6220142171421,463.0200114221707 M 616.6220142171421,483.02001142217085 M 611.8220142171419,483.02001142217085 M 611.8220142171422,503.0200114221709 M 616.6220142171421,503.0200114221708 M 616.6220142171421,523.0200114221709 M 611.8220142171419,523.0200114221709 M 611.8220142171422,543.0200114221709 M 616.6220142171421,543.0200114221709 M 616.6220142171421,563.020011422171 M 611.8220142171424,563.020011422171 M 611.8220142171422,583.0200114221708 M 61.04199212734295,392.2181053398354 M 165.44199212734304,392.21810533983546 M 165.44199212734304,412.71810533983546 M 170.2419921273431,412.71810533983546 M 170.2419921273431,432.7181053398354 M 165.44199212734304,432.7181053398356 M 165.44199212734293,452.71810533983546 M 170.241992127343,452.7181053398356 M 170.2419921273431,472.71810533983535 M 165.44199212734304,472.7181053398354 M 165.44199212734304,492.71810533983546 M 170.2419921273431,492.71810533983546 M 170.241992127343,512.7181053398355 M 165.44199212734304,512.7181053398355 M 165.44199212734304,532.7181053398355 M 170.241992127343,532.7181053398355 M 170.2419921273431,552.7181053398355 M 165.44199212734304,552.7181053398355 M 165.44199212734293,572.7181053398355 M 170.241992127343,572.7451503755557 M 170.2419921273431,592.7181053398353 M 165.44199212734304,592.7181053398353 M 165.44199212734304,613.2181053398353 M 143.241992127343,613.2181053398355 M 143.24199212734288,608.4181053398354 M 123.24199212734288,608.4181053398354 M 123.24199212734288,613.2181053398355 M 103.24199212734277,613.2181053398355 M 103.24199212734288,608.4181053398354 M 83.24199212734288,608.4181053398354 M 83.24199212734288,613.2181053398355 M 61.04199212734284,613.2181053398355 M 61.04199212734295,592.7181053398353 M 56.24199212734288,592.7181053398353 M 56.24199212734288,572.7181053398355 M 61.04199212734295,572.7181053398355 M 61.04199212734295,552.7181053398353 M 56.24199212734288,552.7181053398355 M 56.241992127342996,532.7181053398355 M 61.04199212734295,532.7181053398355 M 61.04199212734295,512.7181053398353 M 56.24199212734288,512.7181053398353 M 56.241992127342996,492.71810533983546 M 61.04199212734295,492.71810533983546 M 61.04199212734295,472.7181053398354 M 56.241992127342996,472.71810533983535 M 56.241992127342996,452.71810533983535 M 61.04199212734295,452.7181053398356 M 61.04199212734295,432.7181053398355 M 56.241992127342996,432.7181053398354 M 56.241992127342996,412.7181053398354 M 61.04199212734295,412.71810533983546 M 1214.13258574527,14.091301572944122 M 1225.1325857452705,14.091301572918066 M 1225.1325857452705,24.09130157291357 M 1220.33258574527,24.091301572914766 M 1220.33258574527,44.091301572914276 M 1225.1325857452705,44.091301572917885 M 1225.1325857452705,64.09130157292324 M 1220.33258574527,64.09130157291932 M 1220.33258574527,84.09130157291972 M 1225.13258574527,84.09130157292306 M 1225.1325857452705,104.09130157292071 M 1220.33258574527,104.09130157292255 M 1220.33258574527,124.09130157292083 M 1225.1325857452705,124.09130157291918 M 1225.1325857452705,144.09130157292134 M 1220.33258574527,144.0913015729197 M 1220.33258574527,164.0913015729218 M 1225.1325857452705,164.09130157292125 M 1225.1325857452705,184.09130157292066 M 1220.33258574527,184.09130157292094 M 1220.33258574527,204.09130157292032 M 1225.13258574527,204.0913015729213 M 1225.1325857452705,224.09130157292074 M 1220.33258574527,224.0913015729212 M 1220.33258574527,244.0913015729211 M 1225.1325857452705,244.09130157292066 M 1225.1325857452705,264.091301572921 M 1220.33258574527,264.091301572921 M 1220.33258574527,284.09130157292134 M 1225.1325857452705,284.0913015729212 M 1225.1325857452705,304.09130157292043 M 1220.33258574527,304.091301572921 M 1220.33258574527,324.0913015729209 M 1225.1325857452705,324.0913015729212 M 1225.1325857452705,334.0913015729212 M 1204.63258574527,334.09130157292157 M 1204.63258574527,329.2913015729214 M 1184.6325857452703,329.29130157292116 M 1184.6325857452703,334.0913015729207 M 1164.6325857452705,334.09130157292157 M 1164.6325857452705,329.29130157292053 M 1144.6325857452703,329.2913015729212 M 1144.6325857452703,334.0913015729212 M 1124.63258574527,334.0913015729211 M 1124.63258574527,329.291301572921 M 1104.6325857452703,329.29130157292144 M 1104.6325857452703,334.0913015729211 M 1084.6325857452703,334.0913015729216 M 1084.6325857452703,329.2913015729218 M 1064.63258574527,329.29130157292167 M 1064.63258574527,334.09130157292105 M 1044.6325857452703,334.0913015729211 M 1044.6325857452703,329.29130157292076 M 1024.63258574527,329.2913015729214 M 1024.63258574527,334.0913015729212 M 1004.13258574527,334.0913015729209 M 783.1325857452703,113.09130157292111 M 783.1325857452703,14.09130157293084 M 794.1325857452703,14.091301572906751 M 794.1325857452703,18.891301572926775 M 814.1325857452703,18.891301572928036 M 814.1325857452703,14.091301572913885 M 834.1325857452703,14.091301572917978 M 834.1325857452703,18.891301572918238 M 854.13258574527,18.891301572912262 M 854.13258574527,14.0913015729122 M 874.13258574527,14.091301572923205 M 874.13258574527,18.891301572910333 M 894.1325857452703,18.89130157291509 M 894.1325857452703,14.091301572941395 M 914.1325857452703,14.091301572927605 M 914.1325857452703,18.891301572919257 M 934.13258574527,18.89130157292248 M 934.13258574527,14.091301572936537 M 954.1325857452703,14.091301572909789 M 954.1325857452703,18.891301572912845 M 974.1325857452703,18.891301572904013 M 974.1325857452703,14.09130157290846 M 994.1325857452703,14.091301572926675 M 994.1325857452703,18.8913015729088 M 1014.1325857452703,18.891301572909377 M 1014.1325857452703,14.091301572948124 M 1034.13258574527,14.09130157290711 M 1034.13258574527,18.89130157291408 M 1054.1325857452703,18.891301572906293 M 1054.1325857452703,14.091301572921722 M 1074.13258574527,14.091301572900216 M 1074.13258574527,18.891301572918763 M 1094.1325857452703,18.89130157291457 M 1094.1325857452698,14.091301572955786 M 1114.1325857452703,14.09130157291289 M 1114.1325857452703,18.89130157290874 M 1134.13258574527,18.891301572933134 M 1134.13258574527,14.091301572964754 M 1154.1325857452703,14.091301572930945 M 1154.1325857452703,18.891301572925695 M 1174.1325857452705,18.891301572932576 M 1174.13258574527,14.09130157295398 M 1194.1325857452703,14.091301572901344 M 1194.1325857452703,18.89130157293186 M 1214.13258574527,18.891301572912624 M 490.55397301873586,128.99543603148453 M 470.55397301873586,128.99543603148427 M 470.55397301873586,124.19543603148433 M 465.35397301873604,124.1954360314846 M 465.35397301873604,101.9954360314842 M 460.5539730187361,101.99543603148446 M 460.5539730187361,81.99543603148445 M 465.35397301873604,81.99543603148477 M 465.35397301873604,61.995436031484964 M 460.5539730187361,61.99543603148451 M 460.5539730187361,41.99543603148432 M 465.35397301873604,41.99543603148417 M 465.35397301873604,19.795436031485895 M 470.55397301873586,19.795436031483924 M 470.55397301873586,14.995436031483564 M 490.55397301873586,14.995436031484447 M 490.55397301873586,19.79543603148138 M 510.5539730187361,19.795436031483067 M 510.55397301873586,14.995436031487404 M 530.5539730187361,14.995436031473897 M 530.5539730187361,19.795436031487448 M 550.5539730187359,19.79543603148491 M 550.5539730187359,14.9954360314875 M 570.5539730187359,14.995436031475396 M 570.5539730187359,19.795436031484968 M 590.5539730187359,19.795436031481074 M 590.5539730187359,14.995436031487941 M 610.5539730187359,14.995436031492694 M 610.5539730187361,19.795436031485767 M 630.5539730187361,19.795436031488713 M 630.5539730187361,14.99543603148286 M 650.5539730187359,14.995436031478413 M 650.5539730187359,19.795436031482005 M 670.5539730187359,19.795436031487245 M 670.5539730187359,14.995436031474615 M 690.5539730187361,14.995436031487847 M 690.5539730187361,19.795436031484265 M 710.5539730187359,19.795436031491015 M 710.5539730187361,14.995436031493458 M 730.5539730187361,14.995436031489817 M 730.5539730187361,19.7954360314877 M 750.5539730187359,19.795436031490183 M 750.5539730187359,14.995436031493067 M 770.5539730187359,14.995436031492623 M 770.5539730187359,19.795436031486968 M 775.7539730187359,19.795436031493285 M 775.7539730187361,41.99543603148341 M 780.5539730187361,41.99543603148325 M 780.5539730187359,61.99543603148506 M 775.7539730187359,61.9954360314847 M 775.7539730187359,81.99543603148518 M 780.5539730187361,81.99543603148463 M 780.5539730187361,101.99543603148432 M 775.7539730187359,101.99543603148418 M 775.7539730187359,124.1954360314845 M 770.5539730187359,124.19543603148423 M 770.5539730187359,128.99543603148473 M 750.5539730187359,128.99543603148476 M 750.5539730187359,124.19543603148438 M 730.5539730187361,124.19543603148462 M 730.5539730187361,128.99543603148481 M 710.5539730187361,128.99543603148442 M 710.5539730187361,124.19543603148449 M 690.5539730187361,124.19543603148445 M 690.5539730187361,128.99543603148442 M 670.5539730187359,128.99543603148425 M 670.5539730187359,124.19543603148426 M 650.5539730187359,124.19543603148419 M 650.5539730187359,128.9954360314846 M 630.5539730187361,128.99543603148436 M 630.5539730187361,124.19543603148435 M 610.5539730187359,124.19543603148483 M 610.5539730187359,128.99543603148427 M 590.5539730187361,128.99543603148393 M 590.5539730187359,124.19543603148426 M 570.5539730187359,124.19543603148426 M 570.5539730187359,128.99543603148436 M 550.5539730187359,128.9954360314843 M 550.5539730187359,124.19543603148453 M 530.5539730187359,124.19543603148476 M 530.5539730187361,128.99543603148427 M 510.55397301873586,128.9954360314847 M 510.55397301873586,124.19543603148446 M 490.55397301873586,124.19543603148426 M 740.5320278498041,185.4786228530447 M 740.5320278498041,174.47862285304436 M 839.5320278498043,174.47862285304484 M 1060.5320278498043,395.47862285304456 M 1060.5320278498043,415.9786228530446 M 1055.732027849804,415.9786228530444 M 1055.7320278498044,435.9786228530447 M 1060.5320278498043,435.97862285304427 M 1060.5320278498043,455.97862285304444 M 1055.7320278498044,455.97862285304456 M 1055.7320278498044,475.9786228530444 M 1060.5320278498043,475.97862285304467 M 1060.5320278498043,495.97862285304444 M 1055.732027849804,495.97862285304456 M 1055.732027849804,515.9786228530447 M 1060.5320278498043,515.978622853045 M 1060.5320278498043,535.9786228530447 M 1055.732027849804,535.9786228530447 M 1055.732027849804,555.9786228530445 M 1060.5320278498043,555.9786228530448 M 1060.5320278498039,576.0056678887652 M 1055.732027849804,576.005667888765 M 1055.732027849804,595.9786228530443 M 1060.5320278498043,595.9786228530444 M 1060.5320278498043,616.4786228530442 M 1050.532027849804,616.4786228530444 M 1050.532027849804,611.6786228530445 M 1030.5320278498039,611.678622853045 M 1030.5320278498039,616.4786228530445 M 1010.5320278498041,616.4786228530448 M 1010.5320278498041,611.6786228530447 M 990.5320278498041,611.6786228530448 M 990.5320278498041,616.4786228530446 M 970.5320278498043,616.4786228530446 M 970.5320278498043,611.6786228530445 M 950.5320278498039,611.6786228530445 M 950.5320278498041,616.4786228530447 M 930.5320278498041,616.4786228530445 M 930.5320278498041,611.6786228530448 M 910.5320278498041,611.6786228530447 M 910.5320278498041,616.4786228530446 M 890.5320278498039,616.4786228530448 M 890.5320278498041,611.6786228530447 M 870.5320278498041,611.6786228530445 M 870.5320278498041,616.4786228530444 M 850.5320278498041,616.4786228530446 M 850.5320278498041,611.6786228530443 M 830.5320278498041,611.6786228530445 M 830.5320278498041,616.4786228530446 M 810.5320278498041,616.4786228530445 M 810.5320278498039,611.6786228530448 M 790.5320278498041,611.6786228530444 M 790.5320278498041,616.4786228530444 M 770.5320278498043,616.4786228530446 M 770.5320278498043,611.6786228530444 M 750.5320278498041,611.6786228530444 M 750.5320278498041,616.4786228530445 M 740.5320278498041,616.4786228530446 M 740.5320278498041,605.4786228530445 M 745.3320278498043,605.4786228530445 M 745.3320278498043,585.4786228530444 M 740.5320278498041,585.4786228530445 M 740.5320278498041,565.4786228530445 M 745.3320278498043,565.4786228530445 M 745.3320278498043,545.4786228530447 M 740.5320278498041,545.4786228530445 M 740.5320278498041,525.4786228530445 M 745.3320278498043,525.4786228530444 M 745.3320278498043,505.4786228530444 M 740.5320278498041,505.4786228530444 M 740.5320278498041,485.4786228530445 M 745.3320278498043,485.4786228530446 M 745.3320278498043,465.47862285304427 M 740.5320278498041,465.47862285304444 M 740.5320278498041,445.4786228530444 M 745.3320278498043,445.47862285304456 M 745.3320278498043,425.47862285304444 M 740.5320278498041,425.4786228530443 M 740.5320278498041,405.4786228530444 M 745.3320278498043,405.4786228530445 M 745.3320278498043,385.4786228530446 M 740.5320278498041,385.4786228530444 M 740.5320278498041,365.47862285304456 M 745.3320278498043,365.47862285304444 M 745.3320278498043,345.47862285304456 M 740.5320278498041,345.4786228530445 M 740.5320278498041,325.4786228530444 M 745.3320278498043,325.47862285304456 M 745.3320278498043,305.47862285304456 M 740.5320278498041,305.47862285304444 M 740.5320278498041,285.47862285304444 M 745.3320278498043,285.47862285304444 M 745.3320278498043,265.47862285304427 M 740.5320278498043,265.4786228530441 M 740.5320278498041,245.4786228530448 M 745.3320278498043,245.47862285304421 M 745.3320278498043,225.47862285304456 M 740.5320278498041,225.47862285304424 M 740.5320278498041,205.4786228530442 M 745.3320278498043,205.4786228530447 M 745.3320278498043,185.4786228530449 M 735.4652753093083,584.9985109799366 M 735.4652753093083,604.9985109799363 M 730.6652753093083,604.9985109799364 M 730.6652753093083,615.9985109799364 M 626.2652753093082,615.9985109799364 M 626.2652753093082,604.9985109799364 M 621.465275309308,604.9985109799367 M 621.465275309308,584.9985109799362 M 626.2652753093082,584.9985109799366 M 626.2652753093082,564.9985109799367 M 621.465275309308,564.9985109799364 M 621.465275309308,544.9985109799364 M 626.2652753093082,544.9985109799364 M 626.2652753093082,524.9985109799364 M 621.465275309308,524.9985109799367 M 621.465275309308,504.9985109799365 M 626.2652753093082,504.99851097993655 M 626.2652753093082,484.9985109799365 M 621.465275309308,484.9985109799365 M 621.465275309308,464.99851097993644 M 626.265275309308,464.9985109799364 M 626.265275309308,444.9985109799366 M 621.465275309308,444.9985109799366 M 621.465275309308,424.99851097993655 M 626.2652753093082,424.99851097993655 M 626.2652753093082,404.99851097993644 M 621.465275309308,404.9985109799364 M 621.465275309308,384.9985109799365 M 626.2652753093082,384.9985109799365 M 626.2652753093082,364.99851097993667 M 621.465275309308,364.9985109799365 M 621.465275309308,344.9985109799366 M 626.2652753093082,344.99851097993644 M 626.2652753093082,324.99851097993655 M 621.465275309308,324.9985109799365 M 621.465275309308,304.9985109799363 M 626.2652753093082,304.99851097993655 M 626.265275309308,284.9985109799365 M 621.465275309308,284.99851097993644 M 621.465275309308,264.9985109799364 M 626.265275309308,264.99851097993667 M 626.265275309308,244.9985109799365 M 621.465275309308,244.99851097993636 M 621.4652753093078,224.99851097993664 M 626.265275309308,224.99851097993673 M 626.265275309308,204.99851097993638 M 621.465275309308,204.99851097993627 M 621.465275309308,184.99851097993644 M 626.265275309308,184.99851097993636 M 626.2652753093078,173.9985109799365 M 648.465275309308,173.9985109799366 M 648.465275309308,178.79851097993625 M 668.465275309308,178.79851097993625 M 668.465275309308,173.9985109799364 M 688.465275309308,173.99851097993633 M 688.465275309308,178.79851097993622 M 708.4652753093083,178.79851097993614 M 708.465275309308,173.99851097993638 M 730.6652753093081,173.9985109799366 M 730.6652753093081,184.9985109799362 M 735.465275309308,184.99851097993655 M 735.4652753093083,204.99851097993616 M 730.6652753093081,204.99851097993664 M 730.6652753093081,224.99851097993627 M 735.465275309308,224.9985109799362 M 735.4652753093083,244.99851097993627 M 730.6652753093078,244.99851097993678 M 730.6652753093083,264.99851097993644 M 735.4652753093083,264.9985109799365 M 735.4652753093083,284.9985109799364 M 730.6652753093083,284.9985109799365 M 730.6652753093083,304.9985109799364 M 735.4652753093083,304.9985109799362 M 735.465275309308,324.99851097993667 M 730.6652753093083,324.9985109799363 M 730.6652753093083,344.9985109799364 M 735.4652753093083,344.9985109799363 M 735.465275309308,364.99851097993655 M 730.6652753093083,364.9985109799363 M 730.6652753093083,384.99851097993627 M 735.4652753093083,384.9985109799363 M 735.4652753093083,404.9985109799364 M 730.6652753093083,404.99851097993627 M 730.6652753093083,424.99851097993627 M 735.4652753093083,424.99851097993627 M 735.4652753093083,444.9985109799364 M 730.6652753093083,444.9985109799365 M 730.6652753093083,464.9985109799364 M 735.4652753093083,464.99851097993644 M 735.4652753093083,484.9985109799365 M 730.6652753093083,484.9985109799365 M 730.6652753093083,504.9985109799365 M 735.4652753093083,504.9985109799365 M 735.4652753093083,524.9985109799362 M 730.6652753093083,524.9985109799366 M 730.6652753093083,544.9985109799366 M 735.4652753093083,544.9985109799366 M 735.4652753093083,564.9985109799363 M 730.6652753093083,564.9985109799363 M 730.6652753093083,584.9985109799364 M 1070.653323197582,394.0178782944237 M 1175.0533231975821,394.0178782944237 M 1175.0533231975821,414.51787829442367 M 1179.8533231975825,414.51787829442316 M 1179.8533231975825,434.5178782944236 M 1175.0533231975821,434.5178782944236 M 1175.0533231975821,454.51787829442395 M 1179.8533231975825,454.5178782944232 M 1179.853323197582,474.51787829442367 M 1175.0533231975821,474.51787829442384 M 1175.0533231975821,494.5178782944238 M 1179.8533231975825,494.5178782944236 M 1179.8533231975825,514.5178782944238 M 1175.0533231975821,514.5178782944236 M 1175.0533231975821,534.5178782944237 M 1179.8533231975825,534.5178782944237 M 1179.8533231975825,554.5178782944232 M 1175.0533231975824,554.5178782944236 M 1175.0533231975821,574.5178782944233 M 1179.8533231975825,574.5449233301438 M 1179.8533231975825,594.5178782944236 M 1175.0533231975821,594.517878294424 M 1175.0533231975821,615.0178782944237 M 1152.8533231975825,615.0178782944234 M 1152.853323197582,610.2178782944235 M 1132.8533231975823,610.2178782944237 M 1132.8533231975823,615.0178782944237 M 1112.853323197582,615.0178782944237 M 1112.853323197582,610.2178782944237 M 1092.853323197582,610.2178782944237 M 1092.853323197582,615.017878294424 M 1070.653323197582,615.0178782944237 M 1070.653323197582,594.5178782944239 M 1065.8533231975823,594.5178782944237 M 1065.8533231975823,574.5178782944234 M 1070.653323197582,574.5178782944238 M 1070.653323197582,554.5178782944236 M 1065.8533231975823,554.5178782944236 M 1065.8533231975823,534.5178782944236 M 1070.653323197582,534.5178782944234 M 1070.653323197582,514.5178782944238 M 1065.8533231975823,514.5178782944236 M 1065.8533231975823,494.5178782944238 M 1070.653323197582,494.5178782944239 M 1070.653323197582,474.51787829442355 M 1065.8533231975823,474.51787829442384 M 1065.8533231975823,454.5178782944238 M 1070.653323197582,454.51787829442395 M 1070.6533231975825,434.5178782944231 M 1065.8533231975823,434.5178782944234 M 1065.8533231975823,414.51787829442344 M 1070.653323197582,414.5178782944238 M 498.843016191983,603.1810433239345 M 498.843016191983,614.1810433239345 M 488.843016191983,614.1810433239345 M 488.843016191983,609.3810433239345 M 468.843016191983,609.3810433239345 M 468.843016191983,614.1810433239344 M 448.8430161919832,614.1810433239344 M 448.8430161919832,609.3810433239345 M 428.84301619198345,609.3810433239345 M 428.84301619198345,614.1810433239342 M 408.8430161919832,614.1810433239344 M 408.8430161919832,609.3810433239345 M 388.8430161919832,609.3810433239345 M 388.8430161919832,614.1810433239344 M 368.8430161919831,614.1810433239344 M 368.8430161919831,609.3810433239345 M 348.8430161919831,609.3810433239344 M 348.8430161919831,614.1810433239343 M 328.84301619198334,614.1810433239342 M 328.8430161919832,609.3810433239345 M 308.8430161919832,609.3810433239343 M 308.843016191983,614.1810433239342 M 288.8430161919831,614.1810433239343 M 288.8430161919831,609.3810433239344 M 268.8430161919831,609.3810433239344 M 268.8430161919831,614.1810433239343 M 248.8430161919831,614.1810433239343 M 248.8430161919831,609.3810433239344 M 228.843016191983,609.3810433239343 M 228.843016191983,614.1810433239342 M 208.843016191983,614.1810433239342 M 208.843016191983,609.3810433239344 M 188.8430161919831,609.3810433239344 M 188.8430161919831,614.1810433239344 M 178.84301619198322,614.1810433239343 M 178.84301619198322,593.6810433239343 M 183.64301619198318,593.6810433239343 M 183.64301619198318,573.6810433239344 M 178.84301619198322,573.6810433239344 M 178.84301619198322,553.6810433239344 M 183.64301619198307,553.6810433239344 M 183.64301619198307,533.6810433239343 M 178.84301619198322,533.6810433239344 M 178.84301619198322,513.6810433239343 M 183.64301619198307,513.6810433239343 M 183.64301619198318,493.6810433239343 M 178.84301619198334,493.6810433239342 M 178.84301619198334,473.6810433239343 M 183.6430161919833,473.6810433239343 M 183.64301619198318,453.6810433239343 M 178.84301619198322,453.6810433239343 M 178.84301619198334,433.68104332393426 M 183.64301619198318,433.6810433239343 M 183.64301619198318,413.6810433239343 M 178.84301619198334,413.68104332393426 M 178.84301619198322,393.1810433239343 M 399.8430161919832,172.18104332393457 M 498.8430161919832,172.18104332393446 M 498.8430161919832,183.18104332393457 M 494.04301619198327,183.18104332393446 M 494.04301619198327,203.18104332393438 M 498.8430161919832,203.18104332393443 M 498.8430161919832,223.18104332393438 M 494.04301619198327,223.18104332393443 M 494.04301619198327,243.18104332393438 M 498.8430161919832,243.1810433239345 M 498.8430161919832,263.1810433239345 M 494.04301619198327,263.18104332393443 M 494.04301619198327,283.1810433239344 M 498.8430161919832,283.1810433239343 M 498.8430161919832,303.18104332393443 M 494.04301619198327,303.1810433239343 M 494.04301619198327,323.18104332393426 M 498.8430161919832,323.18104332393426 M 498.8430161919832,343.18104332393455 M 494.04301619198327,343.18104332393455 M 494.04301619198327,363.1810433239344 M 498.8430161919832,363.1810433239343 M 498.8430161919832,383.1810433239345 M 494.04301619198327,383.1810433239344 M 494.04301619198327,403.18104332393443 M 498.8430161919832,403.1810433239345 M 498.8430161919832,423.1810433239344 M 494.04301619198327,423.1810433239344 M 494.04301619198327,443.1810433239345 M 498.8430161919832,443.18104332393443 M 498.8430161919832,463.1810433239344 M 494.04301619198327,463.1810433239344 M 494.04301619198327,483.18104332393455 M 498.8430161919832,483.18104332393455 M 498.8430161919832,503.1810433239346 M 494.04301619198327,503.18104332393443 M 494.04301619198327,523.1810433239343 M 498.8430161919832,523.1810433239343 M 498.8430161919832,543.1810433239344 M 494.04301619198327,543.1810433239343 M 494.04301619198327,563.1810433239344 M 498.8430161919832,563.1810433239344 M 498.8430161919832,583.1810433239343 M 494.04301619198304,583.1810433239344 M 494.04301619198304,603.1810433239345 M 443.8925872984064,12.507190412479137 M 454.8925872984064,12.50719041247768 M 454.8925872984066,111.50719041248124 M 233.89258729840662,332.5071904124816 M 213.39258729840662,332.5071904124816 M 213.39258729840662,327.70719041248157 M 193.39258729840662,327.7071904124816 M 193.39258729840674,332.5071904124816 M 173.39258729840662,332.5071904124816 M 173.39258729840662,327.7071904124816 M 153.39258729840674,327.7071904124817 M 153.39258729840674,332.5071904124817 M 133.39258729840674,332.50719041248163 M 133.39258729840662,327.7071904124817 M 113.39258729840674,327.70719041248174 M 113.39258729840662,332.5071904124817 M 93.39258729840674,332.50719041248163 M 93.39258729840674,327.70719041248174 M 73.39258729840662,327.70719041248174 M 73.39258729840662,332.5071904124817 M 53.36554226268629,332.50719041248175 M 53.365542262686404,327.7071904124818 M 33.392587298406625,327.70719041248185 M 33.39258729840674,332.50719041248175 M 12.892587298406738,332.50719041248175 M 12.892587298406625,322.50719041248186 M 17.69258729840658,322.50719041248186 M 17.69258729840658,302.5071904124818 M 12.892587298406625,302.50719041248186 M 12.892587298406625,282.5071904124818 M 17.69258729840658,282.5071904124818 M 17.69258729840658,262.5071904124818 M 12.892587298406625,262.5071904124818 M 12.892587298406625,242.5071904124818 M 17.69258729840658,242.50719041248175 M 17.692587298406465,222.5071904124818 M 12.89258729840651,222.5071904124818 M 12.89258729840651,202.50719041248178 M 17.692587298406465,202.50719041248178 M 17.692587298406465,182.50719041248183 M 12.89258729840651,182.5071904124818 M 12.89258729840651,162.50719041248178 M 17.692587298406465,162.5071904124818 M 17.692587298406465,142.50719041248172 M 12.892587298406397,142.50719041248172 M 12.892587298406397,122.50719041248175 M 17.692587298406465,122.50719041248175 M 17.692587298406465,102.5071904124817 M 12.892587298406397,102.5071904124817 M 12.892587298406397,82.50719041248173 M 17.692587298406465,82.50719041248172 M 17.692587298406465,62.50719041248176 M 12.892587298406397,62.507190412481776 M 12.892587298406397,42.50719041248172 M 17.69258729840635,42.50719041248172 M 17.69258729840635,22.507190412481755 M 12.892587298406397,22.507190412481762 M 12.892587298406397,12.507190412481776 M 23.892587298406397,12.507190412481773 M 23.892587298406397,17.307190412481766 M 43.89258729840628,17.307190412481773 M 43.89258729840628,12.507190412481748 M 63.89258729840628,12.507190412481492 M 63.89258729840628,17.30719041248167 M 83.89258729840628,17.30719041248162 M 83.89258729840628,12.507190412481581 M 103.89258729840628,12.507190412481716 M 103.89258729840628,17.30719041248174 M 123.8925872984064,17.307190412481738 M 123.8925872984064,12.50719041248138 M 143.89258729840628,12.50719041248222 M 143.89258729840628,17.307190412481695 M 163.8925872984064,17.30719041248108 M 163.89258729840628,12.507190412480876 M 183.8925872984064,12.507190412479817 M 183.8925872984064,17.30719041248155 M 203.8925872984064,17.307190412481795 M 203.8925872984064,12.5071904124832 M 223.8925872984064,12.507190412480153 M 223.8925872984064,17.307190412481383 M 243.89258729840628,17.307190412481706 M 243.89258729840628,12.507190412480389 M 263.8925872984063,12.507190412479236 M 263.8925872984063,17.307190412481344 M 283.8925872984064,17.307190412481276 M 283.8925872984064,12.507190412482213 M 303.8925872984064,12.507190412479385 M 303.8925872984064,17.3071904124812 M 323.8925872984064,17.307190412481223 M 323.8925872984064,12.507190412477742 M 343.8925872984063,12.507190412480453 M 343.8925872984063,17.3071904124814 M 363.8925872984065,17.307190412481525 M 363.8925872984063,12.507190412481767 M 383.8925872984063,12.50719041248587 M 383.8925872984064,17.307190412480505 M 403.8925872984064,17.307190412481773 M 403.8925872984064,12.50719041248119 M 423.8925872984064,12.507190412494584 M 423.8925872984064,17.3071904124817 M 443.8925872984064,17.30719041247885 "
  />
</svg>
