<?xml version="1.0" standalone="no"?>
<!DOCTYPE svg PUBLIC "-//W3C//DTD SVG 1.1//EN" "http://www.w3.org/Graphics/SVG/1.1/DTD/svg11.dtd">
<svg width="462.0000000000001mm" height="340.0000000000001mm"
 viewBox="0 0 462.0000000000001 340.0000000000001"
 xmlns="http://www.w3.org/2000/svg" version="1.1"
 xmlns:xlink="http://www.w3.org/1999/xlink">
<desc>Output from Flights of Ideas SVG Sketchup Plugin</desc>

  <path id="face0-cut"
 style="fill:none;stroke:#0000FF;stroke-width:1;stroke-miterlimit:4;stroke-dasharray:none;stroke-linejoin:round;stroke-linecap:round"
        d="M 440.9999999999999,330.0 L 452.0000000000001,330.0 L 452.0000000000001,319.9999999999999 L 447.19999999999993,319.9999999999999 L 447.19999999999993,300.0 L 452.0000000000001,300.0 L 452.0000000000001,280.0 L 447.19999999999993,280.0 L 447.19999999999993,260.0 L 452.0000000000001,260.0 L 452.0000000000001,240.00000000000009 L 447.19999999999993,240.00000000000009 L 447.19999999999993,220.00000000000009 L 452.0000000000001,220.00000000000009 L 452.0000000000001,199.99999999999997 L 447.19999999999993,199.99999999999997 L 447.19999999999993,180.00000000000003 L 452.0000000000001,180.00000000000003 L 452.0000000000001,160.00000000000003 L 447.19999999999993,160.00000000000003 L 447.19999999999993,139.99999999999991 L 452.0000000000001,139.99999999999991 L 452.0000000000001,119.99999999999991 L 447.19999999999993,119.99999999999991 L 447.19999999999993,99.99999999999997 L 452.0000000000001,99.99999999999997 L 452.0000000000001,80.0 L 447.19999999999993,80.0 L 447.19999999999993,59.99999999999994 L 452.0000000000001,60.0 L 452.0000000000001,39.999999999999886 L 447.19999999999993,39.999999999999886 L 447.19999999999993,19.999999999999943 L 452.0000000000001,19.999999999999943 L 452.0000000000001,10.000000000000057 L 431.4999999999999,10.000000000000057 L 431.4999999999999,14.799999999999955 L 411.5000000000001,14.799999999999898 L 411.5000000000001,10.0 L 391.5000000000001,10.000000000000085 L 391.5000000000001,14.799999999999955 L 371.5000000000001,14.799999999999955 L 371.4999999999999,10.0 L 351.5,10.0 L 351.5,14.799999999999955 L 331.5,14.799999999999898 L 331.5,10.000000000000057 L 311.5,10.000000000000085 L 311.5,14.799999999999898 L 291.5000000000001,14.799999999999955 L 291.5000000000001,10.000000000000057 L 271.4999999999999,10.000000000000057 L 271.4999999999999,14.799999999999983 L 251.5,14.799999999999983 L 251.5,10.000000000000057 L 231.0000000000001,10.0 L 10.0,231.0000000000003 L 10.0,330.0000000000001 L 21.0,330.0000000000001 L 21.0,325.199999999998 L 41.0,325.20000000000255 L 41.0,330.0000000000001 L 61.0,330.0000000000001 L 61.0,325.20000000000255 L 81.0,325.2000000000007 L 81.0,330.0 L 101.0,330.0 L 101.0,325.1999999999982 L 121.0,325.20000000000095 L 121.0,330.0 L 141.0,330.0 L 141.0,325.2000000000022 L 161.0,325.20000000000005 L 161.0,330.0 L 180.9999999999999,330.0 L 180.9999999999999,325.2000000000003 L 201.0000000000001,325.1999999999998 L 201.0000000000001,330.0 L 221.0,330.0 L 221.0,325.19999999999834 L 241.0,325.20000000000005 L 241.0,330.0 L 261.0,330.0 L 261.0,325.20000000000005 L 280.9999999999999,325.2000000000005 L 280.9999999999999,330.0 L 301.0000000000001,330.0 L 300.9999999999999,325.2000000000005 L 321.0,325.1999999999998 L 321.0,330.0 L 341.0,330.0 L 341.0,325.20000000000005 L 361.0000000000001,325.1999999999998 L 361.0000000000001,330.0 L 380.9999999999999,330.0 L 380.9999999999999,325.20000000000005 L 401.0000000000001,325.20000000000005 L 401.0000000000001,330.0 L 421.0000000000001,330.0 L 421.0000000000001,325.20000000000005 L 440.9999999999999,325.20000000000005 L 440.9999999999999,330.0 "
  />
  <path id="face0-interior"
 style="fill:none;stroke:#FF0000;stroke-width:1;stroke-miterlimit:4;stroke-dasharray:none;stroke-linejoin:round;stroke-linecap:round"
        d="M 440.9999999999999,330.0 M 452.0000000000001,330.0 M 452.0000000000001,319.9999999999999 M 447.19999999999993,319.9999999999999 M 447.19999999999993,300.0 M 452.0000000000001,300.0 M 452.0000000000001,280.0 M 447.19999999999993,280.0 M 447.19999999999993,260.0 M 452.0000000000001,260.0 M 452.0000000000001,240.00000000000009 M 447.19999999999993,240.00000000000009 M 447.19999999999993,220.00000000000009 M 452.0000000000001,220.00000000000009 M 452.0000000000001,199.99999999999997 M 447.19999999999993,199.99999999999997 M 447.19999999999993,180.00000000000003 M 452.0000000000001,180.00000000000003 M 452.0000000000001,160.00000000000003 M 447.19999999999993,160.00000000000003 M 447.19999999999993,139.99999999999991 M 452.0000000000001,139.99999999999991 M 452.0000000000001,119.99999999999991 M 447.19999999999993,119.99999999999991 M 447.19999999999993,99.99999999999997 M 452.0000000000001,99.99999999999997 M 452.0000000000001,80.0 M 447.19999999999993,80.0 M 447.19999999999993,59.99999999999994 M 452.0000000000001,60.0 M 452.0000000000001,39.999999999999886 M 447.19999999999993,39.999999999999886 M 447.19999999999993,19.999999999999943 M 452.0000000000001,19.999999999999943 M 452.0000000000001,10.000000000000057 M 431.4999999999999,10.000000000000057 M 431.4999999999999,14.799999999999955 M 411.5000000000001,14.799999999999898 M 411.5000000000001,10.0 M 391.5000000000001,10.000000000000085 M 391.5000000000001,14.799999999999955 M 371.5000000000001,14.799999999999955 M 371.4999999999999,10.0 M 351.5,10.0 M 351.5,14.799999999999955 M 331.5,14.799999999999898 M 331.5,10.000000000000057 M 311.5,10.000000000000085 M 311.5,14.799999999999898 M 291.5000000000001,14.799999999999955 M 291.5000000000001,10.000000000000057 M 271.4999999999999,10.000000000000057 M 271.4999999999999,14.799999999999983 M 251.5,14.799999999999983 M 251.5,10.000000000000057 M 231.0000000000001,10.0 M 10.0,231.0000000000003 M 10.0,330.0000000000001 M 21.0,330.0000000000001 M 21.0,325.199999999998 M 41.0,325.20000000000255 M 41.0,330.0000000000001 M 61.0,330.0000000000001 M 61.0,325.20000000000255 M 81.0,325.2000000000007 M 81.0,330.0 M 101.0,330.0 M 101.0,325.1999999999982 M 121.0,325.20000000000095 M 121.0,330.0 M 141.0,330.0 M 141.0,325.2000000000022 M 161.0,325.20000000000005 M 161.0,330.0 M 180.9999999999999,330.0 M 180.9999999999999,325.2000000000003 M 201.0000000000001,325.1999999999998 M 201.0000000000001,330.0 M 221.0,330.0 M 221.0,325.19999999999834 M 241.0,325.20000000000005 M 241.0,330.0 M 261.0,330.0 M 261.0,325.20000000000005 M 280.9999999999999,325.2000000000005 M 280.9999999999999,330.0 M 301.0000000000001,330.0 M 300.9999999999999,325.2000000000005 M 321.0,325.1999999999998 M 321.0,330.0 M 341.0,330.0 M 341.0,325.20000000000005 M 361.0000000000001,325.1999999999998 M 361.0000000000001,330.0 M 380.9999999999999,330.0 M 380.9999999999999,325.20000000000005 M 401.0000000000001,325.20000000000005 M 401.0000000000001,330.0 M 421.0000000000001,330.0 M 421.0000000000001,325.20000000000005 M 440.9999999999999,325.20000000000005 "
  />
  <path id="face0-interior"
 style="fill:none;stroke:#00FF00;stroke-width:1;stroke-miterlimit:4;stroke-dasharray:none;stroke-linejoin:round;stroke-linecap:round"
        d="M 440.9999999999999,330.0 M 452.0000000000001,330.0 M 452.0000000000001,319.9999999999999 M 447.19999999999993,319.9999999999999 M 447.19999999999993,300.0 M 452.0000000000001,300.0 M 452.0000000000001,280.0 M 447.19999999999993,280.0 M 447.19999999999993,260.0 M 452.0000000000001,260.0 M 452.0000000000001,240.00000000000009 M 447.19999999999993,240.00000000000009 M 447.19999999999993,220.00000000000009 M 452.0000000000001,220.00000000000009 M 452.0000000000001,199.99999999999997 M 447.19999999999993,199.99999999999997 M 447.19999999999993,180.00000000000003 M 452.0000000000001,180.00000000000003 M 452.0000000000001,160.00000000000003 M 447.19999999999993,160.00000000000003 M 447.19999999999993,139.99999999999991 M 452.0000000000001,139.99999999999991 M 452.0000000000001,119.99999999999991 M 447.19999999999993,119.99999999999991 M 447.19999999999993,99.99999999999997 M 452.0000000000001,99.99999999999997 M 452.0000000000001,80.0 M 447.19999999999993,80.0 M 447.19999999999993,59.99999999999994 M 452.0000000000001,60.0 M 452.0000000000001,39.999999999999886 M 447.19999999999993,39.999999999999886 M 447.19999999999993,19.999999999999943 M 452.0000000000001,19.999999999999943 M 452.0000000000001,10.000000000000057 M 431.4999999999999,10.000000000000057 M 431.4999999999999,14.799999999999955 M 411.5000000000001,14.799999999999898 M 411.5000000000001,10.0 M 391.5000000000001,10.000000000000085 M 391.5000000000001,14.799999999999955 M 371.5000000000001,14.799999999999955 M 371.4999999999999,10.0 M 351.5,10.0 M 351.5,14.799999999999955 M 331.5,14.799999999999898 M 331.5,10.000000000000057 M 311.5,10.000000000000085 M 311.5,14.799999999999898 M 291.5000000000001,14.799999999999955 M 291.5000000000001,10.000000000000057 M 271.4999999999999,10.000000000000057 M 271.4999999999999,14.799999999999983 M 251.5,14.799999999999983 M 251.5,10.000000000000057 M 231.0000000000001,10.0 M 10.0,231.0000000000003 M 10.0,330.0000000000001 M 21.0,330.0000000000001 M 21.0,325.199999999998 M 41.0,325.20000000000255 M 41.0,330.0000000000001 M 61.0,330.0000000000001 M 61.0,325.20000000000255 M 81.0,325.2000000000007 M 81.0,330.0 M 101.0,330.0 M 101.0,325.1999999999982 M 121.0,325.20000000000095 M 121.0,330.0 M 141.0,330.0 M 141.0,325.2000000000022 M 161.0,325.20000000000005 M 161.0,330.0 M 180.9999999999999,330.0 M 180.9999999999999,325.2000000000003 M 201.0000000000001,325.1999999999998 M 201.0000000000001,330.0 M 221.0,330.0 M 221.0,325.19999999999834 M 241.0,325.20000000000005 M 241.0,330.0 M 261.0,330.0 M 261.0,325.20000000000005 M 280.9999999999999,325.2000000000005 M 280.9999999999999,330.0 M 301.0000000000001,330.0 M 300.9999999999999,325.2000000000005 M 321.0,325.1999999999998 M 321.0,330.0 M 341.0,330.0 M 341.0,325.20000000000005 M 361.0000000000001,325.1999999999998 M 361.0000000000001,330.0 M 380.9999999999999,330.0 M 380.9999999999999,325.20000000000005 M 401.0000000000001,325.20000000000005 M 401.0000000000001,330.0 M 421.0000000000001,330.0 M 421.0000000000001,325.20000000000005 M 440.9999999999999,325.20000000000005 "
  />
</svg>
