<?xml version="1.0" standalone="no"?>
<!DOCTYPE svg PUBLIC "-//W3C//DTD SVG 1.1//EN" "http://www.w3.org/Graphics/SVG/1.1/DTD/svg11.dtd">
<svg width="240.99999999999977mm" height="134.00000000000074mm"
 viewBox="0 0 240.99999999999977 134.00000000000074"
 xmlns="http://www.w3.org/2000/svg" version="1.1"
 xmlns:xlink="http://www.w3.org/1999/xlink">
<desc>Output from Flights of Ideas SVG Sketchup Plugin</desc>

  <path id="face0-cut"
 style="fill:none;stroke:#0000FF;stroke-width:1;stroke-miterlimit:4;stroke-dasharray:none;stroke-linejoin:round;stroke-linecap:round"
        d="M 10.0,14.800000000000637 L 10.0,119.20000000000073 L 30.5,119.20000000000073 L 30.5,124.00000000000068 L 50.5,124.00000000000068 L 50.5,119.20000000000073 L 70.49999999999977,119.20000000000073 L 70.49999999999977,124.00000000000068 L 90.5,124.00000000000068 L 90.5,119.20000000000073 L 110.5,119.20000000000073 L 110.5,124.00000000000068 L 130.5,124.00000000000068 L 130.5,119.20000000000073 L 150.5,119.20000000000073 L 150.5,124.00000000000068 L 170.49999999999977,124.00000000000068 L 170.49999999999977,119.20000000000073 L 190.5,119.20000000000067 L 190.52704503572,124.00000000000074 L 210.49999999999977,124.00000000000068 L 210.49999999999977,119.20000000000073 L 230.99999999999977,119.20000000000073 L 230.99999999999977,97.00000000000068 L 226.19999999999982,97.00000000000068 L 226.19999999999982,77.00000000000063 L 230.99999999999977,77.00000000000051 L 230.99999999999977,57.000000000000625 L 226.19999999999982,57.000000000000455 L 226.19999999999982,37.00000000000057 L 230.99999999999977,37.00000000000091 L 230.99999999999977,14.800000000000637 L 210.49999999999977,14.800000000000637 L 210.49999999999977,10.0 L 190.5,10.00000000000108 L 190.5,14.800000000000637 L 170.49999999999977,14.800000000000637 L 170.49999999999977,10.000000000000682 L 150.5,10.000000000000455 L 150.5,14.800000000000637 L 130.5,14.800000000000637 L 130.5,10.000000000000284 L 110.5,10.000000000000625 L 110.5,14.800000000000637 L 90.5,14.800000000000637 L 90.5,10.000000000000597 L 70.49999999999977,10.000000000000739 L 70.49999999999977,14.800000000000637 L 50.5,14.800000000000637 L 50.5,10.000000000000625 L 30.5,10.000000000000625 L 30.5,14.800000000000637 L 10.0,14.800000000000637 "
  />
  <path id="face0-interior"
 style="fill:none;stroke:#FF0000;stroke-width:1;stroke-miterlimit:4;stroke-dasharray:none;stroke-linejoin:round;stroke-linecap:round"
        d="M 10.0,14.800000000000637 M 10.0,119.20000000000073 M 30.5,119.20000000000073 M 30.5,124.00000000000068 M 50.5,124.00000000000068 M 50.5,119.20000000000073 M 70.49999999999977,119.20000000000073 M 70.49999999999977,124.00000000000068 M 90.5,124.00000000000068 M 90.5,119.20000000000073 M 110.5,119.20000000000073 M 110.5,124.00000000000068 M 130.5,124.00000000000068 M 130.5,119.20000000000073 M 150.5,119.20000000000073 M 150.5,124.00000000000068 M 170.49999999999977,124.00000000000068 M 170.49999999999977,119.20000000000073 M 190.5,119.20000000000067 M 190.52704503572,124.00000000000074 M 210.49999999999977,124.00000000000068 M 210.49999999999977,119.20000000000073 M 230.99999999999977,119.20000000000073 M 230.99999999999977,97.00000000000068 M 226.19999999999982,97.00000000000068 M 226.19999999999982,77.00000000000063 M 230.99999999999977,77.00000000000051 M 230.99999999999977,57.000000000000625 M 226.19999999999982,57.000000000000455 M 226.19999999999982,37.00000000000057 M 230.99999999999977,37.00000000000091 M 230.99999999999977,14.800000000000637 M 210.49999999999977,14.800000000000637 M 210.49999999999977,10.0 M 190.5,10.00000000000108 M 190.5,14.800000000000637 M 170.49999999999977,14.800000000000637 M 170.49999999999977,10.000000000000682 M 150.5,10.000000000000455 M 150.5,14.800000000000637 M 130.5,14.800000000000637 M 130.5,10.000000000000284 M 110.5,10.000000000000625 M 110.5,14.800000000000637 M 90.5,14.800000000000637 M 90.5,10.000000000000597 M 70.49999999999977,10.000000000000739 M 70.49999999999977,14.800000000000637 M 50.5,14.800000000000637 M 50.5,10.000000000000625 M 30.5,10.000000000000625 M 30.5,14.800000000000637 "
  />
  <path id="face0-interior"
 style="fill:none;stroke:#00FF00;stroke-width:1;stroke-miterlimit:4;stroke-dasharray:none;stroke-linejoin:round;stroke-linecap:round"
        d="M 10.0,14.800000000000637 M 10.0,119.20000000000073 M 30.5,119.20000000000073 M 30.5,124.00000000000068 M 50.5,124.00000000000068 M 50.5,119.20000000000073 M 70.49999999999977,119.20000000000073 M 70.49999999999977,124.00000000000068 M 90.5,124.00000000000068 M 90.5,119.20000000000073 M 110.5,119.20000000000073 M 110.5,124.00000000000068 M 130.5,124.00000000000068 M 130.5,119.20000000000073 M 150.5,119.20000000000073 M 150.5,124.00000000000068 M 170.49999999999977,124.00000000000068 M 170.49999999999977,119.20000000000073 M 190.5,119.20000000000067 M 190.52704503572,124.00000000000074 M 210.49999999999977,124.00000000000068 M 210.49999999999977,119.20000000000073 M 230.99999999999977,119.20000000000073 M 230.99999999999977,97.00000000000068 M 226.19999999999982,97.00000000000068 M 226.19999999999982,77.00000000000063 M 230.99999999999977,77.00000000000051 M 230.99999999999977,57.000000000000625 M 226.19999999999982,57.000000000000455 M 226.19999999999982,37.00000000000057 M 230.99999999999977,37.00000000000091 M 230.99999999999977,14.800000000000637 M 210.49999999999977,14.800000000000637 M 210.49999999999977,10.0 M 190.5,10.00000000000108 M 190.5,14.800000000000637 M 170.49999999999977,14.800000000000637 M 170.49999999999977,10.000000000000682 M 150.5,10.000000000000455 M 150.5,14.800000000000637 M 130.5,14.800000000000637 M 130.5,10.000000000000284 M 110.5,10.000000000000625 M 110.5,14.800000000000637 M 90.5,14.800000000000637 M 90.5,10.000000000000597 M 70.49999999999977,10.000000000000739 M 70.49999999999977,14.800000000000637 M 50.5,14.800000000000637 M 50.5,10.000000000000625 M 30.5,10.000000000000625 M 30.5,14.800000000000637 "
  />
</svg>
